<?xml version="1.0" encoding="utf-8" standalone="no"?>
<!DOCTYPE svg PUBLIC "-//W3C//DTD SVG 1.1//EN"
  "http://www.w3.org/Graphics/SVG/1.1/DTD/svg11.dtd">
<svg xmlns:xlink="http://www.w3.org/1999/xlink" width="973.086134pt" height="576.07958pt" viewBox="0 0 973.086134 576.07958" xmlns="http://www.w3.org/2000/svg" version="1.1">
 <metadata>
  <rdf:RDF xmlns:dc="http://purl.org/dc/elements/1.1/" xmlns:cc="http://creativecommons.org/ns#" xmlns:rdf="http://www.w3.org/1999/02/22-rdf-syntax-ns#">
   <cc:Work>
    <dc:type rdf:resource="http://purl.org/dc/dcmitype/StillImage"/>
    <dc:date>1970-01-01T00:00:00+00:00</dc:date>
    <dc:format>image/svg+xml</dc:format>
    <dc:creator>
     <cc:Agent>
      <dc:title>Matplotlib v3.11.0, https://matplotlib.org/</dc:title>
     </cc:Agent>
    </dc:creator>
   </cc:Work>
  </rdf:RDF>
 </metadata>
 <defs>
  <style type="text/css">*{stroke-linejoin: round; stroke-linecap: butt}</style>
 </defs>
 <g id="figure_1">
  <g id="patch_1">
   <path d="M 0 576.07958 
L 973.086134 576.07958 
L 973.086134 0 
L 0 0 
z
" style="fill: #ffffff"/>
  </g>
  <g id="axes_1">
   <g id="patch_2">
    <path d="M 78.568438 506.874268 
L 937.086134 506.874268 
L 937.086134 73.217235 
L 78.568438 73.217235 
z
" style="fill: #e5e5e5"/>
   </g>
   <g id="matplotlib.axis_1">
    <g id="xtick_1">
     <g id="line2d_1">
      <path d="M 78.568438 506.874268 
L 78.568438 73.217235 
" clip-path="url(#pb1eff26b59)" style="fill: none; stroke: #ffffff; stroke-width: 0.8; stroke-linecap: square"/>
     </g>
     <g id="line2d_2">
      <defs>
       <path id="m93393296e1" d="M 0 0 
L 0 3.5 
" style="stroke: #555555; stroke-width: 0.8"/>
      </defs>
      <g>
       <use xlink:href="#m93393296e1" x="78.568438" y="506.874268" style="fill: #555555; stroke: #555555; stroke-width: 0.8"/>
      </g>
     </g>
     <g id="text_1">
      <!-- 1920 -->
      <g style="fill: #555555" transform="translate(65.843438 521.471924) scale(0.1 -0.1)">
       <defs>
        <path id="DejaVuSans-14" d="M 794 531 
L 1825 531 
L 1825 4091 
L 703 3866 
L 703 4441 
L 1819 4666 
L 2450 4666 
L 2450 531 
L 3481 531 
L 3481 0 
L 794 0 
L 794 531 
z
" transform="scale(0.015625)"/>
        <path id="DejaVuSans-1c" d="M 703 97 
L 703 672 
Q 941 559 1184 500 
Q 1428 441 1663 441 
Q 2288 441 2617 861 
Q 2947 1281 2994 2138 
Q 2813 1869 2534 1725 
Q 2256 1581 1919 1581 
Q 1219 1581 811 2004 
Q 403 2428 403 3163 
Q 403 3881 828 4315 
Q 1253 4750 1959 4750 
Q 2769 4750 3195 4129 
Q 3622 3509 3622 2328 
Q 3622 1225 3098 567 
Q 2575 -91 1691 -91 
Q 1453 -91 1209 -44 
Q 966 3 703 97 
z
M 1959 2075 
Q 2384 2075 2632 2365 
Q 2881 2656 2881 3163 
Q 2881 3666 2632 3958 
Q 2384 4250 1959 4250 
Q 1534 4250 1286 3958 
Q 1038 3666 1038 3163 
Q 1038 2656 1286 2365 
Q 1534 2075 1959 2075 
z
" transform="scale(0.015625)"/>
        <path id="DejaVuSans-15" d="M 1228 531 
L 3431 531 
L 3431 0 
L 469 0 
L 469 531 
Q 828 903 1448 1529 
Q 2069 2156 2228 2338 
Q 2531 2678 2651 2914 
Q 2772 3150 2772 3378 
Q 2772 3750 2511 3984 
Q 2250 4219 1831 4219 
Q 1534 4219 1204 4116 
Q 875 4013 500 3803 
L 500 4441 
Q 881 4594 1212 4672 
Q 1544 4750 1819 4750 
Q 2544 4750 2975 4387 
Q 3406 4025 3406 3419 
Q 3406 3131 3298 2873 
Q 3191 2616 2906 2266 
Q 2828 2175 2409 1742 
Q 1991 1309 1228 531 
z
" transform="scale(0.015625)"/>
        <path id="DejaVuSans-13" d="M 2034 4250 
Q 1547 4250 1301 3770 
Q 1056 3291 1056 2328 
Q 1056 1369 1301 889 
Q 1547 409 2034 409 
Q 2525 409 2770 889 
Q 3016 1369 3016 2328 
Q 3016 3291 2770 3770 
Q 2525 4250 2034 4250 
z
M 2034 4750 
Q 2819 4750 3233 4129 
Q 3647 3509 3647 2328 
Q 3647 1150 3233 529 
Q 2819 -91 2034 -91 
Q 1250 -91 836 529 
Q 422 1150 422 2328 
Q 422 3509 836 4129 
Q 1250 4750 2034 4750 
z
" transform="scale(0.015625)"/>
       </defs>
       <use xlink:href="#DejaVuSans-14"/>
       <use xlink:href="#DejaVuSans-1c" transform="translate(63.625 0)"/>
       <use xlink:href="#DejaVuSans-15" transform="translate(127.25 0)"/>
       <use xlink:href="#DejaVuSans-13" transform="translate(190.875 0)"/>
      </g>
     </g>
    </g>
    <g id="xtick_2">
     <g id="line2d_3">
      <path d="M 152.578584 506.874268 
L 152.578584 73.217235 
" clip-path="url(#pb1eff26b59)" style="fill: none; stroke: #ffffff; stroke-width: 0.8; stroke-linecap: square"/>
     </g>
     <g id="line2d_4">
      <g>
       <use xlink:href="#m93393296e1" x="152.578584" y="506.874268" style="fill: #555555; stroke: #555555; stroke-width: 0.8"/>
      </g>
     </g>
     <g id="text_2">
      <!-- 1930 -->
      <g style="fill: #555555" transform="translate(139.853584 521.471924) scale(0.1 -0.1)">
       <defs>
        <path id="DejaVuSans-16" d="M 2597 2516 
Q 3050 2419 3304 2112 
Q 3559 1806 3559 1356 
Q 3559 666 3084 287 
Q 2609 -91 1734 -91 
Q 1441 -91 1130 -33 
Q 819 25 488 141 
L 488 750 
Q 750 597 1062 519 
Q 1375 441 1716 441 
Q 2309 441 2620 675 
Q 2931 909 2931 1356 
Q 2931 1769 2642 2001 
Q 2353 2234 1838 2234 
L 1294 2234 
L 1294 2753 
L 1863 2753 
Q 2328 2753 2575 2939 
Q 2822 3125 2822 3475 
Q 2822 3834 2567 4026 
Q 2313 4219 1838 4219 
Q 1578 4219 1281 4162 
Q 984 4106 628 3988 
L 628 4550 
Q 988 4650 1302 4700 
Q 1616 4750 1894 4750 
Q 2613 4750 3031 4423 
Q 3450 4097 3450 3541 
Q 3450 3153 3228 2886 
Q 3006 2619 2597 2516 
z
" transform="scale(0.015625)"/>
       </defs>
       <use xlink:href="#DejaVuSans-14"/>
       <use xlink:href="#DejaVuSans-1c" transform="translate(63.625 0)"/>
       <use xlink:href="#DejaVuSans-16" transform="translate(127.25 0)"/>
       <use xlink:href="#DejaVuSans-13" transform="translate(190.875 0)"/>
      </g>
     </g>
    </g>
    <g id="xtick_3">
     <g id="line2d_5">
      <path d="M 226.58873 506.874268 
L 226.58873 73.217235 
" clip-path="url(#pb1eff26b59)" style="fill: none; stroke: #ffffff; stroke-width: 0.8; stroke-linecap: square"/>
     </g>
     <g id="line2d_6">
      <g>
       <use xlink:href="#m93393296e1" x="226.58873" y="506.874268" style="fill: #555555; stroke: #555555; stroke-width: 0.8"/>
      </g>
     </g>
     <g id="text_3">
      <!-- 1940 -->
      <g style="fill: #555555" transform="translate(213.86373 521.471924) scale(0.1 -0.1)">
       <defs>
        <path id="DejaVuSans-17" d="M 2419 4116 
L 825 1625 
L 2419 1625 
L 2419 4116 
z
M 2253 4666 
L 3047 4666 
L 3047 1625 
L 3713 1625 
L 3713 1100 
L 3047 1100 
L 3047 0 
L 2419 0 
L 2419 1100 
L 313 1100 
L 313 1709 
L 2253 4666 
z
" transform="scale(0.015625)"/>
       </defs>
       <use xlink:href="#DejaVuSans-14"/>
       <use xlink:href="#DejaVuSans-1c" transform="translate(63.625 0)"/>
       <use xlink:href="#DejaVuSans-17" transform="translate(127.25 0)"/>
       <use xlink:href="#DejaVuSans-13" transform="translate(190.875 0)"/>
      </g>
     </g>
    </g>
    <g id="xtick_4">
     <g id="line2d_7">
      <path d="M 300.598876 506.874268 
L 300.598876 73.217235 
" clip-path="url(#pb1eff26b59)" style="fill: none; stroke: #ffffff; stroke-width: 0.8; stroke-linecap: square"/>
     </g>
     <g id="line2d_8">
      <g>
       <use xlink:href="#m93393296e1" x="300.598876" y="506.874268" style="fill: #555555; stroke: #555555; stroke-width: 0.8"/>
      </g>
     </g>
     <g id="text_4">
      <!-- 1950 -->
      <g style="fill: #555555" transform="translate(287.873876 521.471924) scale(0.1 -0.1)">
       <defs>
        <path id="DejaVuSans-18" d="M 691 4666 
L 3169 4666 
L 3169 4134 
L 1269 4134 
L 1269 2991 
Q 1406 3038 1543 3061 
Q 1681 3084 1819 3084 
Q 2600 3084 3056 2656 
Q 3513 2228 3513 1497 
Q 3513 744 3044 326 
Q 2575 -91 1722 -91 
Q 1428 -91 1123 -41 
Q 819 9 494 109 
L 494 744 
Q 775 591 1075 516 
Q 1375 441 1709 441 
Q 2250 441 2565 725 
Q 2881 1009 2881 1497 
Q 2881 1984 2565 2268 
Q 2250 2553 1709 2553 
Q 1456 2553 1204 2497 
Q 953 2441 691 2322 
L 691 4666 
z
" transform="scale(0.015625)"/>
       </defs>
       <use xlink:href="#DejaVuSans-14"/>
       <use xlink:href="#DejaVuSans-1c" transform="translate(63.625 0)"/>
       <use xlink:href="#DejaVuSans-18" transform="translate(127.25 0)"/>
       <use xlink:href="#DejaVuSans-13" transform="translate(190.875 0)"/>
      </g>
     </g>
    </g>
    <g id="xtick_5">
     <g id="line2d_9">
      <path d="M 374.609023 506.874268 
L 374.609023 73.217235 
" clip-path="url(#pb1eff26b59)" style="fill: none; stroke: #ffffff; stroke-width: 0.8; stroke-linecap: square"/>
     </g>
     <g id="line2d_10">
      <g>
       <use xlink:href="#m93393296e1" x="374.609023" y="506.874268" style="fill: #555555; stroke: #555555; stroke-width: 0.8"/>
      </g>
     </g>
     <g id="text_5">
      <!-- 1960 -->
      <g style="fill: #555555" transform="translate(361.884023 521.471924) scale(0.1 -0.1)">
       <defs>
        <path id="DejaVuSans-19" d="M 2113 2584 
Q 1688 2584 1439 2293 
Q 1191 2003 1191 1497 
Q 1191 994 1439 701 
Q 1688 409 2113 409 
Q 2538 409 2786 701 
Q 3034 994 3034 1497 
Q 3034 2003 2786 2293 
Q 2538 2584 2113 2584 
z
M 3366 4563 
L 3366 3988 
Q 3128 4100 2886 4159 
Q 2644 4219 2406 4219 
Q 1781 4219 1451 3797 
Q 1122 3375 1075 2522 
Q 1259 2794 1537 2939 
Q 1816 3084 2150 3084 
Q 2853 3084 3261 2657 
Q 3669 2231 3669 1497 
Q 3669 778 3244 343 
Q 2819 -91 2113 -91 
Q 1303 -91 875 529 
Q 447 1150 447 2328 
Q 447 3434 972 4092 
Q 1497 4750 2381 4750 
Q 2619 4750 2861 4703 
Q 3103 4656 3366 4563 
z
" transform="scale(0.015625)"/>
       </defs>
       <use xlink:href="#DejaVuSans-14"/>
       <use xlink:href="#DejaVuSans-1c" transform="translate(63.625 0)"/>
       <use xlink:href="#DejaVuSans-19" transform="translate(127.25 0)"/>
       <use xlink:href="#DejaVuSans-13" transform="translate(190.875 0)"/>
      </g>
     </g>
    </g>
    <g id="xtick_6">
     <g id="line2d_11">
      <path d="M 448.619169 506.874268 
L 448.619169 73.217235 
" clip-path="url(#pb1eff26b59)" style="fill: none; stroke: #ffffff; stroke-width: 0.8; stroke-linecap: square"/>
     </g>
     <g id="line2d_12">
      <g>
       <use xlink:href="#m93393296e1" x="448.619169" y="506.874268" style="fill: #555555; stroke: #555555; stroke-width: 0.8"/>
      </g>
     </g>
     <g id="text_6">
      <!-- 1970 -->
      <g style="fill: #555555" transform="translate(435.894169 521.471924) scale(0.1 -0.1)">
       <defs>
        <path id="DejaVuSans-1a" d="M 525 4666 
L 3525 4666 
L 3525 4397 
L 1831 0 
L 1172 0 
L 2766 4134 
L 525 4134 
L 525 4666 
z
" transform="scale(0.015625)"/>
       </defs>
       <use xlink:href="#DejaVuSans-14"/>
       <use xlink:href="#DejaVuSans-1c" transform="translate(63.625 0)"/>
       <use xlink:href="#DejaVuSans-1a" transform="translate(127.25 0)"/>
       <use xlink:href="#DejaVuSans-13" transform="translate(190.875 0)"/>
      </g>
     </g>
    </g>
    <g id="xtick_7">
     <g id="line2d_13">
      <path d="M 522.629315 506.874268 
L 522.629315 73.217235 
" clip-path="url(#pb1eff26b59)" style="fill: none; stroke: #ffffff; stroke-width: 0.8; stroke-linecap: square"/>
     </g>
     <g id="line2d_14">
      <g>
       <use xlink:href="#m93393296e1" x="522.629315" y="506.874268" style="fill: #555555; stroke: #555555; stroke-width: 0.8"/>
      </g>
     </g>
     <g id="text_7">
      <!-- 1980 -->
      <g style="fill: #555555" transform="translate(509.904315 521.471924) scale(0.1 -0.1)">
       <defs>
        <path id="DejaVuSans-1b" d="M 2034 2216 
Q 1584 2216 1326 1975 
Q 1069 1734 1069 1313 
Q 1069 891 1326 650 
Q 1584 409 2034 409 
Q 2484 409 2743 651 
Q 3003 894 3003 1313 
Q 3003 1734 2745 1975 
Q 2488 2216 2034 2216 
z
M 1403 2484 
Q 997 2584 770 2862 
Q 544 3141 544 3541 
Q 544 4100 942 4425 
Q 1341 4750 2034 4750 
Q 2731 4750 3128 4425 
Q 3525 4100 3525 3541 
Q 3525 3141 3298 2862 
Q 3072 2584 2669 2484 
Q 3125 2378 3379 2068 
Q 3634 1759 3634 1313 
Q 3634 634 3220 271 
Q 2806 -91 2034 -91 
Q 1263 -91 848 271 
Q 434 634 434 1313 
Q 434 1759 690 2068 
Q 947 2378 1403 2484 
z
M 1172 3481 
Q 1172 3119 1398 2916 
Q 1625 2713 2034 2713 
Q 2441 2713 2670 2916 
Q 2900 3119 2900 3481 
Q 2900 3844 2670 4047 
Q 2441 4250 2034 4250 
Q 1625 4250 1398 4047 
Q 1172 3844 1172 3481 
z
" transform="scale(0.015625)"/>
       </defs>
       <use xlink:href="#DejaVuSans-14"/>
       <use xlink:href="#DejaVuSans-1c" transform="translate(63.625 0)"/>
       <use xlink:href="#DejaVuSans-1b" transform="translate(127.25 0)"/>
       <use xlink:href="#DejaVuSans-13" transform="translate(190.875 0)"/>
      </g>
     </g>
    </g>
    <g id="xtick_8">
     <g id="line2d_15">
      <path d="M 596.639461 506.874268 
L 596.639461 73.217235 
" clip-path="url(#pb1eff26b59)" style="fill: none; stroke: #ffffff; stroke-width: 0.8; stroke-linecap: square"/>
     </g>
     <g id="line2d_16">
      <g>
       <use xlink:href="#m93393296e1" x="596.639461" y="506.874268" style="fill: #555555; stroke: #555555; stroke-width: 0.8"/>
      </g>
     </g>
     <g id="text_8">
      <!-- 1990 -->
      <g style="fill: #555555" transform="translate(583.914461 521.471924) scale(0.1 -0.1)">
       <use xlink:href="#DejaVuSans-14"/>
       <use xlink:href="#DejaVuSans-1c" transform="translate(63.625 0)"/>
       <use xlink:href="#DejaVuSans-1c" transform="translate(127.25 0)"/>
       <use xlink:href="#DejaVuSans-13" transform="translate(190.875 0)"/>
      </g>
     </g>
    </g>
    <g id="xtick_9">
     <g id="line2d_17">
      <path d="M 670.649608 506.874268 
L 670.649608 73.217235 
" clip-path="url(#pb1eff26b59)" style="fill: none; stroke: #ffffff; stroke-width: 0.8; stroke-linecap: square"/>
     </g>
     <g id="line2d_18">
      <g>
       <use xlink:href="#m93393296e1" x="670.649608" y="506.874268" style="fill: #555555; stroke: #555555; stroke-width: 0.8"/>
      </g>
     </g>
     <g id="text_9">
      <!-- 2000 -->
      <g style="fill: #555555" transform="translate(657.924608 521.471924) scale(0.1 -0.1)">
       <use xlink:href="#DejaVuSans-15"/>
       <use xlink:href="#DejaVuSans-13" transform="translate(63.625 0)"/>
       <use xlink:href="#DejaVuSans-13" transform="translate(127.25 0)"/>
       <use xlink:href="#DejaVuSans-13" transform="translate(190.875 0)"/>
      </g>
     </g>
    </g>
    <g id="xtick_10">
     <g id="line2d_19">
      <path d="M 744.659754 506.874268 
L 744.659754 73.217235 
" clip-path="url(#pb1eff26b59)" style="fill: none; stroke: #ffffff; stroke-width: 0.8; stroke-linecap: square"/>
     </g>
     <g id="line2d_20">
      <g>
       <use xlink:href="#m93393296e1" x="744.659754" y="506.874268" style="fill: #555555; stroke: #555555; stroke-width: 0.8"/>
      </g>
     </g>
     <g id="text_10">
      <!-- 2010 -->
      <g style="fill: #555555" transform="translate(731.934754 521.471924) scale(0.1 -0.1)">
       <use xlink:href="#DejaVuSans-15"/>
       <use xlink:href="#DejaVuSans-13" transform="translate(63.625 0)"/>
       <use xlink:href="#DejaVuSans-14" transform="translate(127.25 0)"/>
       <use xlink:href="#DejaVuSans-13" transform="translate(190.875 0)"/>
      </g>
     </g>
    </g>
    <g id="xtick_11">
     <g id="line2d_21">
      <path d="M 818.6699 506.874268 
L 818.6699 73.217235 
" clip-path="url(#pb1eff26b59)" style="fill: none; stroke: #ffffff; stroke-width: 0.8; stroke-linecap: square"/>
     </g>
     <g id="line2d_22">
      <g>
       <use xlink:href="#m93393296e1" x="818.6699" y="506.874268" style="fill: #555555; stroke: #555555; stroke-width: 0.8"/>
      </g>
     </g>
     <g id="text_11">
      <!-- 2020 -->
      <g style="fill: #555555" transform="translate(805.9449 521.471924) scale(0.1 -0.1)">
       <use xlink:href="#DejaVuSans-15"/>
       <use xlink:href="#DejaVuSans-13" transform="translate(63.625 0)"/>
       <use xlink:href="#DejaVuSans-15" transform="translate(127.25 0)"/>
       <use xlink:href="#DejaVuSans-13" transform="translate(190.875 0)"/>
      </g>
     </g>
    </g>
    <g id="text_12">
     <!-- Año -->
     <g style="fill: #555555" transform="translate(496.249161 537.196768) scale(0.12 -0.12)">
      <defs>
       <path id="DejaVuSans-24" d="M 2188 4044 
L 1331 1722 
L 3047 1722 
L 2188 4044 
z
M 1831 4666 
L 2547 4666 
L 4325 0 
L 3669 0 
L 3244 1197 
L 1141 1197 
L 716 0 
L 50 0 
L 1831 4666 
z
" transform="scale(0.015625)"/>
       <path id="DejaVuSans-b3" d="M 3513 2113 
L 3513 0 
L 2938 0 
L 2938 2094 
Q 2938 2591 2744 2837 
Q 2550 3084 2163 3084 
Q 1697 3084 1428 2787 
Q 1159 2491 1159 1978 
L 1159 0 
L 581 0 
L 581 3500 
L 1159 3500 
L 1159 2956 
Q 1366 3272 1645 3428 
Q 1925 3584 2291 3584 
Q 2894 3584 3203 3211 
Q 3513 2838 3513 2113 
z
M 2063 4281 
L 1884 4453 
Q 1816 4516 1764 4545 
Q 1713 4575 1672 4575 
Q 1553 4575 1497 4461 
Q 1441 4347 1434 4091 
L 1044 4091 
Q 1050 4513 1209 4742 
Q 1369 4972 1653 4972 
Q 1772 4972 1872 4928 
Q 1972 4884 2088 4781 
L 2266 4609 
Q 2334 4547 2386 4517 
Q 2438 4488 2478 4488 
Q 2597 4488 2653 4602 
Q 2709 4716 2716 4972 
L 3106 4972 
Q 3100 4550 2940 4320 
Q 2781 4091 2497 4091 
Q 2378 4091 2278 4134 
Q 2178 4178 2063 4281 
z
" transform="scale(0.015625)"/>
       <path id="DejaVuSans-52" d="M 1959 3097 
Q 1497 3097 1228 2736 
Q 959 2375 959 1747 
Q 959 1119 1226 758 
Q 1494 397 1959 397 
Q 2419 397 2687 759 
Q 2956 1122 2956 1747 
Q 2956 2369 2687 2733 
Q 2419 3097 1959 3097 
z
M 1959 3584 
Q 2709 3584 3137 3096 
Q 3566 2609 3566 1747 
Q 3566 888 3137 398 
Q 2709 -91 1959 -91 
Q 1206 -91 779 398 
Q 353 888 353 1747 
Q 353 2609 779 3096 
Q 1206 3584 1959 3584 
z
" transform="scale(0.015625)"/>
      </defs>
      <use xlink:href="#DejaVuSans-24"/>
      <use xlink:href="#DejaVuSans-b3" transform="translate(68.40625 0)"/>
      <use xlink:href="#DejaVuSans-52" transform="translate(131.78125 0)"/>
     </g>
    </g>
   </g>
   <g id="matplotlib.axis_2">
    <g id="ytick_1">
     <g id="line2d_23">
      <path d="M 78.568438 506.874268 
L 937.086134 506.874268 
" clip-path="url(#pb1eff26b59)" style="fill: none; stroke: #ffffff; stroke-width: 0.8; stroke-linecap: square"/>
     </g>
     <g id="line2d_24">
      <defs>
       <path id="mc3f390e5e7" d="M 0 0 
L -3.5 0 
" style="stroke: #555555; stroke-width: 0.8"/>
      </defs>
      <g>
       <use xlink:href="#mc3f390e5e7" x="78.568438" y="506.874268" style="fill: #555555; stroke: #555555; stroke-width: 0.8"/>
      </g>
     </g>
     <g id="text_13">
      <!-- 0 -->
      <g style="fill: #555555" transform="translate(65.205938 510.673096) scale(0.1 -0.1)">
       <use xlink:href="#DejaVuSans-13"/>
      </g>
     </g>
    </g>
    <g id="ytick_2">
     <g id="line2d_25">
      <path d="M 78.568438 428.027535 
L 937.086134 428.027535 
" clip-path="url(#pb1eff26b59)" style="fill: none; stroke: #ffffff; stroke-width: 0.8; stroke-linecap: square"/>
     </g>
     <g id="line2d_26">
      <g>
       <use xlink:href="#mc3f390e5e7" x="78.568438" y="428.027535" style="fill: #555555; stroke: #555555; stroke-width: 0.8"/>
      </g>
     </g>
     <g id="text_14">
      <!-- 20 -->
      <g style="fill: #555555" transform="translate(58.843438 431.826363) scale(0.1 -0.1)">
       <use xlink:href="#DejaVuSans-15"/>
       <use xlink:href="#DejaVuSans-13" transform="translate(63.625 0)"/>
      </g>
     </g>
    </g>
    <g id="ytick_3">
     <g id="line2d_27">
      <path d="M 78.568438 349.180801 
L 937.086134 349.180801 
" clip-path="url(#pb1eff26b59)" style="fill: none; stroke: #ffffff; stroke-width: 0.8; stroke-linecap: square"/>
     </g>
     <g id="line2d_28">
      <g>
       <use xlink:href="#mc3f390e5e7" x="78.568438" y="349.180801" style="fill: #555555; stroke: #555555; stroke-width: 0.8"/>
      </g>
     </g>
     <g id="text_15">
      <!-- 40 -->
      <g style="fill: #555555" transform="translate(58.843438 352.979629) scale(0.1 -0.1)">
       <use xlink:href="#DejaVuSans-17"/>
       <use xlink:href="#DejaVuSans-13" transform="translate(63.625 0)"/>
      </g>
     </g>
    </g>
    <g id="ytick_4">
     <g id="line2d_29">
      <path d="M 78.568438 270.334068 
L 937.086134 270.334068 
" clip-path="url(#pb1eff26b59)" style="fill: none; stroke: #ffffff; stroke-width: 0.8; stroke-linecap: square"/>
     </g>
     <g id="line2d_30">
      <g>
       <use xlink:href="#mc3f390e5e7" x="78.568438" y="270.334068" style="fill: #555555; stroke: #555555; stroke-width: 0.8"/>
      </g>
     </g>
     <g id="text_16">
      <!-- 60 -->
      <g style="fill: #555555" transform="translate(58.843438 274.132896) scale(0.1 -0.1)">
       <use xlink:href="#DejaVuSans-19"/>
       <use xlink:href="#DejaVuSans-13" transform="translate(63.625 0)"/>
      </g>
     </g>
    </g>
    <g id="ytick_5">
     <g id="line2d_31">
      <path d="M 78.568438 191.487335 
L 937.086134 191.487335 
" clip-path="url(#pb1eff26b59)" style="fill: none; stroke: #ffffff; stroke-width: 0.8; stroke-linecap: square"/>
     </g>
     <g id="line2d_32">
      <g>
       <use xlink:href="#mc3f390e5e7" x="78.568438" y="191.487335" style="fill: #555555; stroke: #555555; stroke-width: 0.8"/>
      </g>
     </g>
     <g id="text_17">
      <!-- 80 -->
      <g style="fill: #555555" transform="translate(58.843438 195.286163) scale(0.1 -0.1)">
       <use xlink:href="#DejaVuSans-1b"/>
       <use xlink:href="#DejaVuSans-13" transform="translate(63.625 0)"/>
      </g>
     </g>
    </g>
    <g id="ytick_6">
     <g id="line2d_33">
      <path d="M 78.568438 112.640601 
L 937.086134 112.640601 
" clip-path="url(#pb1eff26b59)" style="fill: none; stroke: #ffffff; stroke-width: 0.8; stroke-linecap: square"/>
     </g>
     <g id="line2d_34">
      <g>
       <use xlink:href="#mc3f390e5e7" x="78.568438" y="112.640601" style="fill: #555555; stroke: #555555; stroke-width: 0.8"/>
      </g>
     </g>
     <g id="text_18">
      <!-- 100 -->
      <g style="fill: #555555" transform="translate(52.480937 116.439429) scale(0.1 -0.1)">
       <use xlink:href="#DejaVuSans-14"/>
       <use xlink:href="#DejaVuSans-13" transform="translate(63.625 0)"/>
       <use xlink:href="#DejaVuSans-13" transform="translate(127.25 0)"/>
      </g>
     </g>
    </g>
    <g id="text_19">
     <!-- Líneas -->
     <g style="fill: #555555" transform="translate(45.598125 309.352626) rotate(-90) scale(0.12 -0.12)">
      <defs>
       <path id="DejaVuSans-2f" d="M 628 4666 
L 1259 4666 
L 1259 531 
L 3531 531 
L 3531 0 
L 628 0 
L 628 4666 
z
" transform="scale(0.015625)"/>
       <path id="DejaVuSans-af" d="M 1325 5119 
L 1947 5119 
L 929 3944 
L 450 3944 
L 1325 5119 
z
M 603 3500 
L 1178 3500 
L 1178 0 
L 603 0 
L 603 3500 
z
M 891 3584 
L 891 3584 
z
" transform="scale(0.015625)"/>
       <path id="DejaVuSans-51" d="M 3513 2113 
L 3513 0 
L 2938 0 
L 2938 2094 
Q 2938 2591 2744 2837 
Q 2550 3084 2163 3084 
Q 1697 3084 1428 2787 
Q 1159 2491 1159 1978 
L 1159 0 
L 581 0 
L 581 3500 
L 1159 3500 
L 1159 2956 
Q 1366 3272 1645 3428 
Q 1925 3584 2291 3584 
Q 2894 3584 3203 3211 
Q 3513 2838 3513 2113 
z
" transform="scale(0.015625)"/>
       <path id="DejaVuSans-48" d="M 3597 1894 
L 3597 1613 
L 953 1613 
Q 991 1019 1311 708 
Q 1631 397 2203 397 
Q 2534 397 2845 478 
Q 3156 559 3463 722 
L 3463 178 
Q 3153 47 2828 -22 
Q 2503 -91 2169 -91 
Q 1331 -91 842 396 
Q 353 884 353 1716 
Q 353 2575 817 3079 
Q 1281 3584 2069 3584 
Q 2775 3584 3186 3129 
Q 3597 2675 3597 1894 
z
M 3022 2063 
Q 3016 2534 2758 2815 
Q 2500 3097 2075 3097 
Q 1594 3097 1305 2825 
Q 1016 2553 972 2059 
L 3022 2063 
z
" transform="scale(0.015625)"/>
       <path id="DejaVuSans-44" d="M 2194 1759 
Q 1497 1759 1228 1600 
Q 959 1441 959 1056 
Q 959 750 1161 570 
Q 1363 391 1709 391 
Q 2188 391 2477 730 
Q 2766 1069 2766 1631 
L 2766 1759 
L 2194 1759 
z
M 3341 1997 
L 3341 0 
L 2766 0 
L 2766 531 
Q 2569 213 2275 61 
Q 1981 -91 1556 -91 
Q 1019 -91 701 211 
Q 384 513 384 1019 
Q 384 1609 779 1909 
Q 1175 2209 1959 2209 
L 2766 2209 
L 2766 2266 
Q 2766 2663 2505 2880 
Q 2244 3097 1772 3097 
Q 1472 3097 1187 3025 
Q 903 2953 641 2809 
L 641 3341 
Q 956 3463 1253 3523 
Q 1550 3584 1831 3584 
Q 2591 3584 2966 3190 
Q 3341 2797 3341 1997 
z
" transform="scale(0.015625)"/>
       <path id="DejaVuSans-56" d="M 2834 3397 
L 2834 2853 
Q 2591 2978 2328 3040 
Q 2066 3103 1784 3103 
Q 1356 3103 1142 2972 
Q 928 2841 928 2578 
Q 928 2378 1081 2264 
Q 1234 2150 1697 2047 
L 1894 2003 
Q 2506 1872 2764 1633 
Q 3022 1394 3022 966 
Q 3022 478 2636 193 
Q 2250 -91 1575 -91 
Q 1294 -91 989 -36 
Q 684 19 347 128 
L 347 722 
Q 666 556 975 473 
Q 1284 391 1588 391 
Q 1994 391 2212 530 
Q 2431 669 2431 922 
Q 2431 1156 2273 1281 
Q 2116 1406 1581 1522 
L 1381 1569 
Q 847 1681 609 1914 
Q 372 2147 372 2553 
Q 372 3047 722 3315 
Q 1072 3584 1716 3584 
Q 2034 3584 2315 3537 
Q 2597 3491 2834 3397 
z
" transform="scale(0.015625)"/>
      </defs>
      <use xlink:href="#DejaVuSans-2f"/>
      <use xlink:href="#DejaVuSans-af" transform="translate(55.71875 0)"/>
      <use xlink:href="#DejaVuSans-51" transform="translate(83.5 0)"/>
      <use xlink:href="#DejaVuSans-48" transform="translate(146.875 0)"/>
      <use xlink:href="#DejaVuSans-44" transform="translate(208.40625 0)"/>
      <use xlink:href="#DejaVuSans-56" transform="translate(269.6875 0)"/>
     </g>
    </g>
   </g>
   <g id="line2d_35">
    <path d="M 204.385686 305.815098 
L 211.786701 301.872761 
L 219.187715 230.910701 
L 226.58873 230.910701 
L 233.989745 230.910701 
L 241.390759 230.910701 
L 248.791774 230.910701 
L 256.192789 230.910701 
L 263.593803 230.910701 
L 270.994818 230.910701 
L 278.395832 230.910701 
L 285.796847 250.622385 
L 293.197862 250.622385 
L 300.598876 254.564721 
L 307.999891 254.564721 
L 315.400906 254.564721 
L 322.80192 254.564721 
L 330.202935 254.564721 
L 337.603949 250.622385 
L 345.004964 250.622385 
L 352.405979 250.622385 
L 359.806993 250.622385 
L 367.208008 250.622385 
L 374.609023 250.622385 
L 382.010037 250.622385 
L 389.411052 246.680048 
L 396.812066 246.680048 
L 404.213081 246.680048 
L 411.614096 246.680048 
L 419.01511 246.680048 
L 426.416125 246.680048 
L 433.81714 246.680048 
L 441.218154 246.680048 
L 448.619169 242.737711 
L 456.020183 242.737711 
L 463.421198 242.737711 
L 470.822213 242.737711 
L 478.223227 242.737711 
L 485.624242 242.737711 
L 493.025257 242.737711 
L 500.426271 242.737711 
L 507.827286 242.737711 
L 515.2283 242.737711 
L 522.629315 242.737711 
L 530.03033 242.737711 
L 537.431344 234.853038 
L 544.832359 234.853038 
L 552.233374 234.853038 
L 559.634388 234.853038 
L 567.035403 234.853038 
L 574.436417 234.853038 
L 581.837432 234.853038 
L 589.238447 234.853038 
L 596.639461 234.853038 
L 604.040476 246.680048 
L 611.441491 223.026028 
L 618.842505 226.968365 
L 626.24352 223.026028 
L 633.644534 215.141355 
L 641.045549 215.141355 
L 648.446564 211.199018 
L 655.847578 215.141355 
L 663.248593 215.141355 
L 670.649608 215.141355 
L 678.050622 215.141355 
L 685.451637 207.256681 
L 692.852651 211.199018 
L 700.253666 211.199018 
L 707.654681 191.487335 
L 715.055695 187.544998 
L 722.45671 171.775651 
L 729.857725 152.063968 
L 737.258739 159.948641 
L 744.659754 148.121631 
L 752.060769 148.121631 
L 759.461783 108.698265 
L 766.862798 124.467611 
L 774.263812 128.409948 
L 781.664827 132.352285 
L 789.065842 120.525275 
L 796.466856 120.525275 
L 803.867871 120.525275 
L 811.268886 108.698265 
L 818.6699 100.813591 
L 826.070915 124.467611 
L 833.471929 124.467611 
L 840.872944 132.352285 
L 848.273959 140.236958 
L 855.674973 140.236958 
L 863.075988 144.179295 
" clip-path="url(#pb1eff26b59)" style="fill: none; stroke: #3a3e7e; stroke-width: 2.5; stroke-linecap: square"/>
   </g>
   <g id="line2d_36">
    <path d="M 396.812066 463.508565 
L 404.213081 471.393238 
L 411.614096 471.393238 
L 419.01511 471.393238 
L 426.416125 471.393238 
L 433.81714 471.393238 
L 441.218154 471.393238 
L 448.619169 471.393238 
L 456.020183 471.393238 
L 463.421198 475.335575 
L 470.822213 475.335575 
L 478.223227 487.162585 
L 485.624242 483.220248 
L 493.025257 483.220248 
L 500.426271 483.220248 
L 507.827286 483.220248 
L 515.2283 483.220248 
L 522.629315 479.277911 
L 530.03033 479.277911 
L 537.431344 479.277911 
L 544.832359 479.277911 
L 552.233374 479.277911 
L 559.634388 479.277911 
L 567.035403 479.277911 
L 574.436417 479.277911 
L 581.837432 479.277911 
L 589.238447 479.277911 
L 596.639461 479.277911 
L 604.040476 479.277911 
L 611.441491 475.335575 
L 618.842505 475.335575 
L 626.24352 475.335575 
L 633.644534 475.335575 
L 641.045549 475.335575 
L 648.446564 475.335575 
L 655.847578 475.335575 
L 663.248593 475.335575 
L 670.649608 475.335575 
L 678.050622 475.335575 
L 685.451637 475.335575 
L 692.852651 475.335575 
L 700.253666 475.335575 
L 707.654681 475.335575 
L 715.055695 471.393238 
L 722.45671 471.393238 
L 729.857725 467.450901 
L 737.258739 467.450901 
L 744.659754 467.450901 
L 752.060769 467.450901 
L 759.461783 467.450901 
L 766.862798 467.450901 
L 774.263812 467.450901 
L 781.664827 467.450901 
L 789.065842 467.450901 
L 796.466856 467.450901 
L 803.867871 467.450901 
L 811.268886 467.450901 
L 818.6699 467.450901 
L 826.070915 455.623891 
L 833.471929 455.623891 
L 840.872944 455.623891 
L 848.273959 455.623891 
L 855.674973 459.566228 
L 863.075988 459.566228 
" clip-path="url(#pb1eff26b59)" style="fill: none; stroke: #298a08; stroke-width: 2.5; stroke-linecap: square"/>
   </g>
   <g id="line2d_37">
    <path d="M 396.812066 487.162585 
L 404.213081 487.162585 
L 411.614096 487.162585 
L 419.01511 487.162585 
L 426.416125 487.162585 
L 433.81714 487.162585 
L 441.218154 487.162585 
L 448.619169 487.162585 
L 456.020183 487.162585 
L 463.421198 487.162585 
L 470.822213 487.162585 
L 478.223227 487.162585 
L 485.624242 479.277911 
L 493.025257 475.335575 
L 500.426271 471.393238 
L 507.827286 475.335575 
L 515.2283 475.335575 
L 522.629315 475.335575 
L 530.03033 475.335575 
L 537.431344 475.335575 
L 544.832359 475.335575 
L 552.233374 475.335575 
L 559.634388 475.335575 
L 567.035403 475.335575 
L 574.436417 475.335575 
L 581.837432 475.335575 
L 589.238447 475.335575 
L 596.639461 475.335575 
L 604.040476 475.335575 
L 611.441491 471.393238 
L 618.842505 471.393238 
L 626.24352 467.450901 
L 633.644534 467.450901 
L 641.045549 467.450901 
L 648.446564 467.450901 
L 655.847578 467.450901 
L 663.248593 467.450901 
L 670.649608 467.450901 
L 678.050622 467.450901 
L 685.451637 467.450901 
L 692.852651 467.450901 
L 700.253666 467.450901 
L 707.654681 467.450901 
L 715.055695 459.566228 
L 722.45671 459.566228 
L 729.857725 455.623891 
L 737.258739 451.681555 
L 744.659754 451.681555 
L 752.060769 451.681555 
L 759.461783 447.739218 
L 766.862798 447.739218 
L 774.263812 447.739218 
L 781.664827 447.739218 
L 789.065842 435.912208 
L 796.466856 431.969871 
L 803.867871 431.969871 
L 811.268886 431.969871 
L 818.6699 428.027535 
L 826.070915 420.142861 
L 833.471929 420.142861 
L 840.872944 420.142861 
L 848.273959 428.027535 
L 855.674973 431.969871 
L 863.075988 431.969871 
" clip-path="url(#pb1eff26b59)" style="fill: none; stroke: #fff200; stroke-width: 2.5; stroke-linecap: square"/>
   </g>
   <g id="line2d_38">
    <path d="M 396.812066 459.566228 
L 404.213081 471.393238 
L 411.614096 471.393238 
L 419.01511 471.393238 
L 426.416125 471.393238 
L 433.81714 471.393238 
L 441.218154 471.393238 
L 448.619169 475.335575 
L 456.020183 475.335575 
L 463.421198 475.335575 
L 470.822213 475.335575 
L 478.223227 475.335575 
L 485.624242 475.335575 
L 493.025257 475.335575 
L 500.426271 475.335575 
L 507.827286 475.335575 
L 515.2283 475.335575 
L 522.629315 475.335575 
L 530.03033 475.335575 
L 537.431344 475.335575 
L 544.832359 475.335575 
L 552.233374 475.335575 
L 559.634388 475.335575 
L 567.035403 475.335575 
L 574.436417 475.335575 
L 581.837432 475.335575 
L 589.238447 475.335575 
L 596.639461 475.335575 
L 604.040476 475.335575 
L 611.441491 459.566228 
L 618.842505 467.450901 
L 626.24352 467.450901 
L 633.644534 467.450901 
L 641.045549 467.450901 
L 648.446564 467.450901 
L 655.847578 467.450901 
L 663.248593 467.450901 
L 670.649608 467.450901 
L 678.050622 467.450901 
L 685.451637 467.450901 
L 692.852651 467.450901 
L 700.253666 467.450901 
L 707.654681 467.450901 
L 715.055695 463.508565 
L 722.45671 463.508565 
L 729.857725 455.623891 
L 737.258739 439.854545 
L 744.659754 439.854545 
L 752.060769 439.854545 
L 759.461783 431.969871 
L 766.862798 435.912208 
L 774.263812 435.912208 
L 781.664827 435.912208 
L 789.065842 428.027535 
L 796.466856 428.027535 
L 803.867871 428.027535 
L 811.268886 428.027535 
L 818.6699 424.085198 
L 826.070915 424.085198 
L 833.471929 424.085198 
L 840.872944 424.085198 
L 848.273959 431.969871 
L 855.674973 435.912208 
L 863.075988 435.912208 
" clip-path="url(#pb1eff26b59)" style="fill: none; stroke: #c80000; stroke-width: 2.5; stroke-linecap: square"/>
   </g>
   <g id="patch_3">
    <path d="M 78.568438 506.874268 
L 78.568438 73.217235 
" style="fill: none; stroke: #ffffff; stroke-linejoin: miter; stroke-linecap: square"/>
   </g>
   <g id="patch_4">
    <path d="M 937.086134 506.874268 
L 937.086134 73.217235 
" style="fill: none; stroke: #ffffff; stroke-linejoin: miter; stroke-linecap: square"/>
   </g>
   <g id="patch_5">
    <path d="M 78.568438 506.874268 
L 937.086134 506.874268 
" style="fill: none; stroke: #ffffff; stroke-linejoin: miter; stroke-linecap: square"/>
   </g>
   <g id="patch_6">
    <path d="M 78.568438 73.217235 
L 937.086134 73.217235 
" style="fill: none; stroke: #ffffff; stroke-linejoin: miter; stroke-linecap: square"/>
   </g>
   <g id="text_20">
    <!-- 92 (66%) -->
    <g style="fill: #3a3e7e" transform="translate(866.776495 147.296482) scale(0.12 -0.12)">
     <defs>
      <path id="DejaVuSans-3" transform="scale(0.015625)"/>
      <path id="DejaVuSans-b" d="M 1984 4856 
Q 1566 4138 1362 3434 
Q 1159 2731 1159 2009 
Q 1159 1288 1364 580 
Q 1569 -128 1984 -844 
L 1484 -844 
Q 1016 -109 783 600 
Q 550 1309 550 2009 
Q 550 2706 781 3412 
Q 1013 4119 1484 4856 
L 1984 4856 
z
" transform="scale(0.015625)"/>
      <path id="DejaVuSans-8" d="M 4653 2053 
Q 4381 2053 4226 1822 
Q 4072 1591 4072 1178 
Q 4072 772 4226 539 
Q 4381 306 4653 306 
Q 4919 306 5073 539 
Q 5228 772 5228 1178 
Q 5228 1588 5073 1820 
Q 4919 2053 4653 2053 
z
M 4653 2450 
Q 5147 2450 5437 2106 
Q 5728 1763 5728 1178 
Q 5728 594 5436 251 
Q 5144 -91 4653 -91 
Q 4153 -91 3862 251 
Q 3572 594 3572 1178 
Q 3572 1766 3864 2108 
Q 4156 2450 4653 2450 
z
M 1428 4353 
Q 1159 4353 1004 4120 
Q 850 3888 850 3481 
Q 850 3069 1003 2837 
Q 1156 2606 1428 2606 
Q 1700 2606 1854 2837 
Q 2009 3069 2009 3481 
Q 2009 3884 1853 4118 
Q 1697 4353 1428 4353 
z
M 4250 4750 
L 4750 4750 
L 1831 -91 
L 1331 -91 
L 4250 4750 
z
M 1428 4750 
Q 1922 4750 2215 4408 
Q 2509 4066 2509 3481 
Q 2509 2891 2217 2550 
Q 1925 2209 1428 2209 
Q 931 2209 642 2551 
Q 353 2894 353 3481 
Q 353 4063 643 4406 
Q 934 4750 1428 4750 
z
" transform="scale(0.015625)"/>
      <path id="DejaVuSans-c" d="M 513 4856 
L 1013 4856 
Q 1481 4119 1714 3412 
Q 1947 2706 1947 2009 
Q 1947 1309 1714 600 
Q 1481 -109 1013 -844 
L 513 -844 
Q 928 -128 1133 580 
Q 1338 1288 1338 2009 
Q 1338 2731 1133 3434 
Q 928 4138 513 4856 
z
" transform="scale(0.015625)"/>
     </defs>
     <use xlink:href="#DejaVuSans-1c"/>
     <use xlink:href="#DejaVuSans-15" transform="translate(63.625 0)"/>
     <use xlink:href="#DejaVuSans-3" transform="translate(127.25 0)"/>
     <use xlink:href="#DejaVuSans-b" transform="translate(159.03125 0)"/>
     <use xlink:href="#DejaVuSans-19" transform="translate(198.046875 0)"/>
     <use xlink:href="#DejaVuSans-19" transform="translate(261.671875 0)"/>
     <use xlink:href="#DejaVuSans-8" transform="translate(325.296875 0)"/>
     <use xlink:href="#DejaVuSans-c" transform="translate(420.3125 0)"/>
    </g>
   </g>
   <g id="text_21">
    <!-- 12 (9%) -->
    <g style="fill: #298a08" transform="translate(866.776495 462.683415) scale(0.12 -0.12)">
     <use xlink:href="#DejaVuSans-14"/>
     <use xlink:href="#DejaVuSans-15" transform="translate(63.625 0)"/>
     <use xlink:href="#DejaVuSans-3" transform="translate(127.25 0)"/>
     <use xlink:href="#DejaVuSans-b" transform="translate(159.03125 0)"/>
     <use xlink:href="#DejaVuSans-1c" transform="translate(198.046875 0)"/>
     <use xlink:href="#DejaVuSans-8" transform="translate(261.671875 0)"/>
     <use xlink:href="#DejaVuSans-c" transform="translate(356.6875 0)"/>
    </g>
   </g>
   <g id="text_22">
    <!-- 18 (13%) -->
    <g style="fill: #fff200" transform="translate(866.776495 423.260049) scale(0.12 -0.12)">
     <use xlink:href="#DejaVuSans-14"/>
     <use xlink:href="#DejaVuSans-1b" transform="translate(63.625 0)"/>
     <use xlink:href="#DejaVuSans-3" transform="translate(127.25 0)"/>
     <use xlink:href="#DejaVuSans-b" transform="translate(159.03125 0)"/>
     <use xlink:href="#DejaVuSans-14" transform="translate(198.046875 0)"/>
     <use xlink:href="#DejaVuSans-16" transform="translate(261.671875 0)"/>
     <use xlink:href="#DejaVuSans-8" transform="translate(325.296875 0)"/>
     <use xlink:href="#DejaVuSans-c" transform="translate(420.3125 0)"/>
    </g>
   </g>
   <g id="text_23">
    <!-- 18 (13%) -->
    <g style="fill: #c80000" transform="translate(866.776495 439.029395) scale(0.12 -0.12)">
     <use xlink:href="#DejaVuSans-14"/>
     <use xlink:href="#DejaVuSans-1b" transform="translate(63.625 0)"/>
     <use xlink:href="#DejaVuSans-3" transform="translate(127.25 0)"/>
     <use xlink:href="#DejaVuSans-b" transform="translate(159.03125 0)"/>
     <use xlink:href="#DejaVuSans-14" transform="translate(198.046875 0)"/>
     <use xlink:href="#DejaVuSans-16" transform="translate(261.671875 0)"/>
     <use xlink:href="#DejaVuSans-8" transform="translate(325.296875 0)"/>
     <use xlink:href="#DejaVuSans-c" transform="translate(420.3125 0)"/>
    </g>
   </g>
   <g id="text_24">
    <!-- Líneas de ómnibus de Montevideo por empresa operadora (1920–2026) -->
    <g transform="translate(226.290567 47.197813) scale(0.14 -0.14)">
     <defs>
      <path id="DejaVuSans-Bold-2f" d="M 588 4666 
L 1791 4666 
L 1791 909 
L 3903 909 
L 3903 0 
L 588 0 
L 588 4666 
z
" transform="scale(0.015625)"/>
      <path id="DejaVuSans-Bold-af" d="M 538 3500 
L 1656 3500 
L 1656 0 
L 538 0 
L 538 3500 
z
M 1594 5119 
L 2478 5119 
L 1325 3944 
L 713 3944 
L 1594 5119 
z
" transform="scale(0.015625)"/>
      <path id="DejaVuSans-Bold-51" d="M 4056 2131 
L 4056 0 
L 2931 0 
L 2931 347 
L 2931 1631 
Q 2931 2084 2911 2256 
Q 2891 2428 2841 2509 
Q 2775 2619 2662 2680 
Q 2550 2741 2406 2741 
Q 2056 2741 1856 2470 
Q 1656 2200 1656 1722 
L 1656 0 
L 538 0 
L 538 3500 
L 1656 3500 
L 1656 2988 
Q 1909 3294 2193 3439 
Q 2478 3584 2822 3584 
Q 3428 3584 3742 3212 
Q 4056 2841 4056 2131 
z
" transform="scale(0.015625)"/>
      <path id="DejaVuSans-Bold-48" d="M 4031 1759 
L 4031 1441 
L 1416 1441 
Q 1456 1047 1700 850 
Q 1944 653 2381 653 
Q 2734 653 3104 758 
Q 3475 863 3866 1075 
L 3866 213 
Q 3469 63 3072 -14 
Q 2675 -91 2278 -91 
Q 1328 -91 801 392 
Q 275 875 275 1747 
Q 275 2603 792 3093 
Q 1309 3584 2216 3584 
Q 3041 3584 3536 3087 
Q 4031 2591 4031 1759 
z
M 2881 2131 
Q 2881 2450 2695 2645 
Q 2509 2841 2209 2841 
Q 1884 2841 1681 2658 
Q 1478 2475 1428 2131 
L 2881 2131 
z
" transform="scale(0.015625)"/>
      <path id="DejaVuSans-Bold-44" d="M 2106 1575 
Q 1756 1575 1579 1456 
Q 1403 1338 1403 1106 
Q 1403 894 1545 773 
Q 1688 653 1941 653 
Q 2256 653 2472 879 
Q 2688 1106 2688 1447 
L 2688 1575 
L 2106 1575 
z
M 3816 1997 
L 3816 0 
L 2688 0 
L 2688 519 
Q 2463 200 2181 54 
Q 1900 -91 1497 -91 
Q 953 -91 614 226 
Q 275 544 275 1050 
Q 275 1666 698 1953 
Q 1122 2241 2028 2241 
L 2688 2241 
L 2688 2328 
Q 2688 2594 2478 2717 
Q 2269 2841 1825 2841 
Q 1466 2841 1156 2769 
Q 847 2697 581 2553 
L 581 3406 
Q 941 3494 1303 3539 
Q 1666 3584 2028 3584 
Q 2975 3584 3395 3211 
Q 3816 2838 3816 1997 
z
" transform="scale(0.015625)"/>
      <path id="DejaVuSans-Bold-56" d="M 3272 3391 
L 3272 2541 
Q 2913 2691 2578 2766 
Q 2244 2841 1947 2841 
Q 1628 2841 1473 2761 
Q 1319 2681 1319 2516 
Q 1319 2381 1436 2309 
Q 1553 2238 1856 2203 
L 2053 2175 
Q 2913 2066 3209 1816 
Q 3506 1566 3506 1031 
Q 3506 472 3093 190 
Q 2681 -91 1863 -91 
Q 1516 -91 1145 -36 
Q 775 19 384 128 
L 384 978 
Q 719 816 1070 734 
Q 1422 653 1784 653 
Q 2113 653 2278 743 
Q 2444 834 2444 1013 
Q 2444 1163 2330 1236 
Q 2216 1309 1875 1350 
L 1678 1375 
Q 931 1469 631 1722 
Q 331 1975 331 2491 
Q 331 3047 712 3315 
Q 1094 3584 1881 3584 
Q 2191 3584 2531 3537 
Q 2872 3491 3272 3391 
z
" transform="scale(0.015625)"/>
      <path id="DejaVuSans-Bold-3" transform="scale(0.015625)"/>
      <path id="DejaVuSans-Bold-47" d="M 2919 2988 
L 2919 4863 
L 4044 4863 
L 4044 0 
L 2919 0 
L 2919 506 
Q 2688 197 2409 53 
Q 2131 -91 1766 -91 
Q 1119 -91 703 423 
Q 288 938 288 1747 
Q 288 2556 703 3070 
Q 1119 3584 1766 3584 
Q 2128 3584 2408 3439 
Q 2688 3294 2919 2988 
z
M 2181 722 
Q 2541 722 2730 984 
Q 2919 1247 2919 1747 
Q 2919 2247 2730 2509 
Q 2541 2772 2181 2772 
Q 1825 2772 1636 2509 
Q 1447 2247 1447 1747 
Q 1447 1247 1636 984 
Q 1825 722 2181 722 
z
" transform="scale(0.015625)"/>
      <path id="DejaVuSans-Bold-b5" d="M 2203 2784 
Q 1831 2784 1636 2517 
Q 1441 2250 1441 1747 
Q 1441 1244 1636 976 
Q 1831 709 2203 709 
Q 2569 709 2762 976 
Q 2956 1244 2956 1747 
Q 2956 2250 2762 2517 
Q 2569 2784 2203 2784 
z
M 2203 3584 
Q 3106 3584 3614 3096 
Q 4122 2609 4122 1747 
Q 4122 884 3614 396 
Q 3106 -91 2203 -91 
Q 1297 -91 786 396 
Q 275 884 275 1747 
Q 275 2609 786 3096 
Q 1297 3584 2203 3584 
z
M 2694 5119 
L 3578 5119 
L 2425 3944 
L 1813 3944 
L 2694 5119 
z
" transform="scale(0.015625)"/>
      <path id="DejaVuSans-Bold-50" d="M 3781 2919 
Q 3994 3244 4286 3414 
Q 4578 3584 4928 3584 
Q 5531 3584 5847 3212 
Q 6163 2841 6163 2131 
L 6163 0 
L 5038 0 
L 5038 1825 
Q 5041 1866 5042 1909 
Q 5044 1953 5044 2034 
Q 5044 2406 4934 2573 
Q 4825 2741 4581 2741 
Q 4263 2741 4089 2478 
Q 3916 2216 3909 1719 
L 3909 0 
L 2784 0 
L 2784 1825 
Q 2784 2406 2684 2573 
Q 2584 2741 2328 2741 
Q 2006 2741 1831 2477 
Q 1656 2213 1656 1722 
L 1656 0 
L 531 0 
L 531 3500 
L 1656 3500 
L 1656 2988 
Q 1863 3284 2130 3434 
Q 2397 3584 2719 3584 
Q 3081 3584 3359 3409 
Q 3638 3234 3781 2919 
z
" transform="scale(0.015625)"/>
      <path id="DejaVuSans-Bold-4c" d="M 538 3500 
L 1656 3500 
L 1656 0 
L 538 0 
L 538 3500 
z
M 538 4863 
L 1656 4863 
L 1656 3950 
L 538 3950 
L 538 4863 
z
" transform="scale(0.015625)"/>
      <path id="DejaVuSans-Bold-45" d="M 2400 722 
Q 2759 722 2948 984 
Q 3138 1247 3138 1747 
Q 3138 2247 2948 2509 
Q 2759 2772 2400 2772 
Q 2041 2772 1848 2508 
Q 1656 2244 1656 1747 
Q 1656 1250 1848 986 
Q 2041 722 2400 722 
z
M 1656 2988 
Q 1888 3294 2169 3439 
Q 2450 3584 2816 3584 
Q 3463 3584 3878 3070 
Q 4294 2556 4294 1747 
Q 4294 938 3878 423 
Q 3463 -91 2816 -91 
Q 2450 -91 2169 54 
Q 1888 200 1656 506 
L 1656 0 
L 538 0 
L 538 4863 
L 1656 4863 
L 1656 2988 
z
" transform="scale(0.015625)"/>
      <path id="DejaVuSans-Bold-58" d="M 500 1363 
L 500 3500 
L 1625 3500 
L 1625 3150 
Q 1625 2866 1622 2436 
Q 1619 2006 1619 1863 
Q 1619 1441 1641 1255 
Q 1663 1069 1716 984 
Q 1784 875 1895 815 
Q 2006 756 2150 756 
Q 2500 756 2700 1025 
Q 2900 1294 2900 1772 
L 2900 3500 
L 4019 3500 
L 4019 0 
L 2900 0 
L 2900 506 
Q 2647 200 2364 54 
Q 2081 -91 1741 -91 
Q 1134 -91 817 281 
Q 500 653 500 1363 
z
" transform="scale(0.015625)"/>
      <path id="DejaVuSans-Bold-30" d="M 588 4666 
L 2119 4666 
L 3181 2169 
L 4250 4666 
L 5778 4666 
L 5778 0 
L 4641 0 
L 4641 3413 
L 3566 897 
L 2803 897 
L 1728 3413 
L 1728 0 
L 588 0 
L 588 4666 
z
" transform="scale(0.015625)"/>
      <path id="DejaVuSans-Bold-52" d="M 2203 2784 
Q 1831 2784 1636 2517 
Q 1441 2250 1441 1747 
Q 1441 1244 1636 976 
Q 1831 709 2203 709 
Q 2569 709 2762 976 
Q 2956 1244 2956 1747 
Q 2956 2250 2762 2517 
Q 2569 2784 2203 2784 
z
M 2203 3584 
Q 3106 3584 3614 3096 
Q 4122 2609 4122 1747 
Q 4122 884 3614 396 
Q 3106 -91 2203 -91 
Q 1297 -91 786 396 
Q 275 884 275 1747 
Q 275 2609 786 3096 
Q 1297 3584 2203 3584 
z
" transform="scale(0.015625)"/>
      <path id="DejaVuSans-Bold-57" d="M 1759 4494 
L 1759 3500 
L 2913 3500 
L 2913 2700 
L 1759 2700 
L 1759 1216 
Q 1759 972 1856 886 
Q 1953 800 2241 800 
L 2816 800 
L 2816 0 
L 1856 0 
Q 1194 0 917 276 
Q 641 553 641 1216 
L 641 2700 
L 84 2700 
L 84 3500 
L 641 3500 
L 641 4494 
L 1759 4494 
z
" transform="scale(0.015625)"/>
      <path id="DejaVuSans-Bold-59" d="M 97 3500 
L 1216 3500 
L 2088 1081 
L 2956 3500 
L 4078 3500 
L 2700 0 
L 1472 0 
L 97 3500 
z
" transform="scale(0.015625)"/>
      <path id="DejaVuSans-Bold-53" d="M 1656 506 
L 1656 -1331 
L 538 -1331 
L 538 3500 
L 1656 3500 
L 1656 2988 
Q 1888 3294 2169 3439 
Q 2450 3584 2816 3584 
Q 3463 3584 3878 3070 
Q 4294 2556 4294 1747 
Q 4294 938 3878 423 
Q 3463 -91 2816 -91 
Q 2450 -91 2169 54 
Q 1888 200 1656 506 
z
M 2400 2772 
Q 2041 2772 1848 2508 
Q 1656 2244 1656 1747 
Q 1656 1250 1848 986 
Q 2041 722 2400 722 
Q 2759 722 2948 984 
Q 3138 1247 3138 1747 
Q 3138 2247 2948 2509 
Q 2759 2772 2400 2772 
z
" transform="scale(0.015625)"/>
      <path id="DejaVuSans-Bold-55" d="M 3138 2547 
Q 2991 2616 2845 2648 
Q 2700 2681 2553 2681 
Q 2122 2681 1889 2404 
Q 1656 2128 1656 1613 
L 1656 0 
L 538 0 
L 538 3500 
L 1656 3500 
L 1656 2925 
Q 1872 3269 2151 3426 
Q 2431 3584 2822 3584 
Q 2878 3584 2943 3579 
Q 3009 3575 3134 3559 
L 3138 2547 
z
" transform="scale(0.015625)"/>
      <path id="DejaVuSans-Bold-b" d="M 2413 -844 
L 1484 -844 
Q 1006 -72 778 623 
Q 550 1319 550 2003 
Q 550 2688 779 3389 
Q 1009 4091 1484 4856 
L 2413 4856 
Q 2013 4116 1813 3408 
Q 1613 2700 1613 2009 
Q 1613 1319 1811 609 
Q 2009 -100 2413 -844 
z
" transform="scale(0.015625)"/>
      <path id="DejaVuSans-Bold-14" d="M 750 831 
L 1813 831 
L 1813 3847 
L 722 3622 
L 722 4441 
L 1806 4666 
L 2950 4666 
L 2950 831 
L 4013 831 
L 4013 0 
L 750 0 
L 750 831 
z
" transform="scale(0.015625)"/>
      <path id="DejaVuSans-Bold-1c" d="M 641 103 
L 641 966 
Q 928 831 1190 764 
Q 1453 697 1709 697 
Q 2247 697 2547 995 
Q 2847 1294 2900 1881 
Q 2688 1725 2447 1647 
Q 2206 1569 1925 1569 
Q 1209 1569 770 1986 
Q 331 2403 331 3084 
Q 331 3838 820 4291 
Q 1309 4744 2131 4744 
Q 3044 4744 3544 4128 
Q 4044 3513 4044 2388 
Q 4044 1231 3459 570 
Q 2875 -91 1856 -91 
Q 1528 -91 1228 -42 
Q 928 6 641 103 
z
M 2125 2350 
Q 2441 2350 2600 2554 
Q 2759 2759 2759 3169 
Q 2759 3575 2600 3781 
Q 2441 3988 2125 3988 
Q 1809 3988 1650 3781 
Q 1491 3575 1491 3169 
Q 1491 2759 1650 2554 
Q 1809 2350 2125 2350 
z
" transform="scale(0.015625)"/>
      <path id="DejaVuSans-Bold-15" d="M 1844 884 
L 3897 884 
L 3897 0 
L 506 0 
L 506 884 
L 2209 2388 
Q 2438 2594 2547 2791 
Q 2656 2988 2656 3200 
Q 2656 3528 2436 3728 
Q 2216 3928 1850 3928 
Q 1569 3928 1234 3808 
Q 900 3688 519 3450 
L 519 4475 
Q 925 4609 1322 4679 
Q 1719 4750 2100 4750 
Q 2938 4750 3402 4381 
Q 3866 4013 3866 3353 
Q 3866 2972 3669 2642 
Q 3472 2313 2841 1759 
L 1844 884 
z
" transform="scale(0.015625)"/>
      <path id="DejaVuSans-Bold-13" d="M 2944 2338 
Q 2944 3213 2780 3570 
Q 2616 3928 2228 3928 
Q 1841 3928 1675 3570 
Q 1509 3213 1509 2338 
Q 1509 1453 1675 1090 
Q 1841 728 2228 728 
Q 2613 728 2778 1090 
Q 2944 1453 2944 2338 
z
M 4147 2328 
Q 4147 1169 3647 539 
Q 3147 -91 2228 -91 
Q 1306 -91 806 539 
Q 306 1169 306 2328 
Q 306 3491 806 4120 
Q 1306 4750 2228 4750 
Q 3147 4750 3647 4120 
Q 4147 3491 4147 2328 
z
" transform="scale(0.015625)"/>
      <path id="DejaVuSans-Bold-af5" d="M 344 2156 
L 2856 2156 
L 2856 1350 
L 344 1350 
L 344 2156 
z
" transform="scale(0.015625)"/>
      <path id="DejaVuSans-Bold-19" d="M 2316 2303 
Q 2000 2303 1842 2098 
Q 1684 1894 1684 1484 
Q 1684 1075 1842 870 
Q 2000 666 2316 666 
Q 2634 666 2792 870 
Q 2950 1075 2950 1484 
Q 2950 1894 2792 2098 
Q 2634 2303 2316 2303 
z
M 3803 4544 
L 3803 3681 
Q 3506 3822 3243 3889 
Q 2981 3956 2731 3956 
Q 2194 3956 1894 3657 
Q 1594 3359 1544 2772 
Q 1750 2925 1990 3001 
Q 2231 3078 2516 3078 
Q 3231 3078 3670 2659 
Q 4109 2241 4109 1563 
Q 4109 813 3618 361 
Q 3128 -91 2303 -91 
Q 1394 -91 895 523 
Q 397 1138 397 2266 
Q 397 3422 980 4083 
Q 1563 4744 2578 4744 
Q 2900 4744 3203 4694 
Q 3506 4644 3803 4544 
z
" transform="scale(0.015625)"/>
      <path id="DejaVuSans-Bold-c" d="M 513 -844 
Q 913 -100 1113 609 
Q 1313 1319 1313 2009 
Q 1313 2700 1113 3408 
Q 913 4116 513 4856 
L 1441 4856 
Q 1916 4091 2145 3389 
Q 2375 2688 2375 2003 
Q 2375 1319 2147 623 
Q 1919 -72 1441 -844 
L 513 -844 
z
" transform="scale(0.015625)"/>
     </defs>
     <use xlink:href="#DejaVuSans-Bold-2f"/>
     <use xlink:href="#DejaVuSans-Bold-af" transform="translate(63.71875 0)"/>
     <use xlink:href="#DejaVuSans-Bold-51" transform="translate(98 0)"/>
     <use xlink:href="#DejaVuSans-Bold-48" transform="translate(169.1875 0)"/>
     <use xlink:href="#DejaVuSans-Bold-44" transform="translate(237.015625 0)"/>
     <use xlink:href="#DejaVuSans-Bold-56" transform="translate(304.5 0)"/>
     <use xlink:href="#DejaVuSans-Bold-3" transform="translate(364.015625 0)"/>
     <use xlink:href="#DejaVuSans-Bold-47" transform="translate(398.828125 0)"/>
     <use xlink:href="#DejaVuSans-Bold-48" transform="translate(470.40625 0)"/>
     <use xlink:href="#DejaVuSans-Bold-3" transform="translate(538.234375 0)"/>
     <use xlink:href="#DejaVuSans-Bold-b5" transform="translate(573.046875 0)"/>
     <use xlink:href="#DejaVuSans-Bold-50" transform="translate(641.75 0)"/>
     <use xlink:href="#DejaVuSans-Bold-51" transform="translate(745.953125 0)"/>
     <use xlink:href="#DejaVuSans-Bold-4c" transform="translate(817.140625 0)"/>
     <use xlink:href="#DejaVuSans-Bold-45" transform="translate(851.421875 0)"/>
     <use xlink:href="#DejaVuSans-Bold-58" transform="translate(923 0)"/>
     <use xlink:href="#DejaVuSans-Bold-56" transform="translate(994.1875 0)"/>
     <use xlink:href="#DejaVuSans-Bold-3" transform="translate(1053.703125 0)"/>
     <use xlink:href="#DejaVuSans-Bold-47" transform="translate(1088.515625 0)"/>
     <use xlink:href="#DejaVuSans-Bold-48" transform="translate(1160.09375 0)"/>
     <use xlink:href="#DejaVuSans-Bold-3" transform="translate(1227.921875 0)"/>
     <use xlink:href="#DejaVuSans-Bold-30" transform="translate(1262.734375 0)"/>
     <use xlink:href="#DejaVuSans-Bold-52" transform="translate(1362.25 0)"/>
     <use xlink:href="#DejaVuSans-Bold-51" transform="translate(1430.953125 0)"/>
     <use xlink:href="#DejaVuSans-Bold-57" transform="translate(1502.140625 0)"/>
     <use xlink:href="#DejaVuSans-Bold-48" transform="translate(1549.9375 0)"/>
     <use xlink:href="#DejaVuSans-Bold-59" transform="translate(1617.765625 0)"/>
     <use xlink:href="#DejaVuSans-Bold-4c" transform="translate(1682.953125 0)"/>
     <use xlink:href="#DejaVuSans-Bold-47" transform="translate(1717.234375 0)"/>
     <use xlink:href="#DejaVuSans-Bold-48" transform="translate(1788.8125 0)"/>
     <use xlink:href="#DejaVuSans-Bold-52" transform="translate(1856.640625 0)"/>
     <use xlink:href="#DejaVuSans-Bold-3" transform="translate(1925.34375 0)"/>
     <use xlink:href="#DejaVuSans-Bold-53" transform="translate(1960.15625 0)"/>
     <use xlink:href="#DejaVuSans-Bold-52" transform="translate(2031.734375 0)"/>
     <use xlink:href="#DejaVuSans-Bold-55" transform="translate(2100.4375 0)"/>
     <use xlink:href="#DejaVuSans-Bold-3" transform="translate(2149.75 0)"/>
     <use xlink:href="#DejaVuSans-Bold-48" transform="translate(2184.5625 0)"/>
     <use xlink:href="#DejaVuSans-Bold-50" transform="translate(2252.390625 0)"/>
     <use xlink:href="#DejaVuSans-Bold-53" transform="translate(2356.59375 0)"/>
     <use xlink:href="#DejaVuSans-Bold-55" transform="translate(2428.171875 0)"/>
     <use xlink:href="#DejaVuSans-Bold-48" transform="translate(2477.484375 0)"/>
     <use xlink:href="#DejaVuSans-Bold-56" transform="translate(2545.3125 0)"/>
     <use xlink:href="#DejaVuSans-Bold-44" transform="translate(2604.828125 0)"/>
     <use xlink:href="#DejaVuSans-Bold-3" transform="translate(2672.3125 0)"/>
     <use xlink:href="#DejaVuSans-Bold-52" transform="translate(2707.125 0)"/>
     <use xlink:href="#DejaVuSans-Bold-53" transform="translate(2775.828125 0)"/>
     <use xlink:href="#DejaVuSans-Bold-48" transform="translate(2847.40625 0)"/>
     <use xlink:href="#DejaVuSans-Bold-55" transform="translate(2915.234375 0)"/>
     <use xlink:href="#DejaVuSans-Bold-44" transform="translate(2964.546875 0)"/>
     <use xlink:href="#DejaVuSans-Bold-47" transform="translate(3032.03125 0)"/>
     <use xlink:href="#DejaVuSans-Bold-52" transform="translate(3103.609375 0)"/>
     <use xlink:href="#DejaVuSans-Bold-55" transform="translate(3172.3125 0)"/>
     <use xlink:href="#DejaVuSans-Bold-44" transform="translate(3221.625 0)"/>
     <use xlink:href="#DejaVuSans-Bold-3" transform="translate(3289.109375 0)"/>
     <use xlink:href="#DejaVuSans-Bold-b" transform="translate(3323.921875 0)"/>
     <use xlink:href="#DejaVuSans-Bold-14" transform="translate(3369.625 0)"/>
     <use xlink:href="#DejaVuSans-Bold-1c" transform="translate(3439.203125 0)"/>
     <use xlink:href="#DejaVuSans-Bold-15" transform="translate(3508.78125 0)"/>
     <use xlink:href="#DejaVuSans-Bold-13" transform="translate(3578.359375 0)"/>
     <use xlink:href="#DejaVuSans-Bold-af5" transform="translate(3647.9375 0)"/>
     <use xlink:href="#DejaVuSans-Bold-15" transform="translate(3697.9375 0)"/>
     <use xlink:href="#DejaVuSans-Bold-13" transform="translate(3767.515625 0)"/>
     <use xlink:href="#DejaVuSans-Bold-15" transform="translate(3837.09375 0)"/>
     <use xlink:href="#DejaVuSans-Bold-19" transform="translate(3906.671875 0)"/>
     <use xlink:href="#DejaVuSans-Bold-c" transform="translate(3976.25 0)"/>
    </g>
   </g>
   <g id="text_25">
    <!-- Solo ómnibus (tranvías y trolebuses excluidos) · "Líneas" = rutas, no cantidad de vehículos -->
    <g transform="translate(279.488223 64.544094) scale(0.1 -0.1)">
     <defs>
      <path id="DejaVuSans-Oblique-36" d="M 3859 4513 
L 3738 3897 
Q 3422 4066 3111 4152 
Q 2800 4238 2509 4238 
Q 1944 4238 1609 3991 
Q 1275 3744 1275 3334 
Q 1275 3109 1398 2989 
Q 1522 2869 2034 2731 
L 2413 2638 
Q 3053 2472 3303 2217 
Q 3553 1963 3553 1503 
Q 3553 797 2998 353 
Q 2444 -91 1538 -91 
Q 1166 -91 791 -17 
Q 416 56 38 206 
L 166 856 
Q 513 641 861 531 
Q 1209 422 1556 422 
Q 2147 422 2503 684 
Q 2859 947 2859 1369 
Q 2859 1650 2717 1795 
Q 2575 1941 2106 2059 
L 1728 2156 
Q 1081 2325 845 2545 
Q 609 2766 609 3163 
Q 609 3859 1145 4304 
Q 1681 4750 2541 4750 
Q 2875 4750 3203 4690 
Q 3531 4631 3859 4513 
z
" transform="scale(0.015625)"/>
      <path id="DejaVuSans-Oblique-52" d="M 1625 -91 
Q 1009 -91 651 289 
Q 294 669 294 1325 
Q 294 1706 417 2101 
Q 541 2497 738 2766 
Q 1047 3184 1428 3384 
Q 1809 3584 2291 3584 
Q 2888 3584 3255 3212 
Q 3622 2841 3622 2241 
Q 3622 1825 3500 1412 
Q 3378 1000 3181 728 
Q 2875 309 2494 109 
Q 2113 -91 1625 -91 
z
M 891 1344 
Q 891 869 1089 633 
Q 1288 397 1691 397 
Q 2269 397 2648 901 
Q 3028 1406 3028 2181 
Q 3028 2634 2825 2865 
Q 2622 3097 2228 3097 
Q 1903 3097 1650 2945 
Q 1397 2794 1197 2484 
Q 1050 2253 970 1956 
Q 891 1659 891 1344 
z
" transform="scale(0.015625)"/>
      <path id="DejaVuSans-Oblique-4f" d="M 1172 4863 
L 1747 4863 
L 800 0 
L 225 0 
L 1172 4863 
z
" transform="scale(0.015625)"/>
      <path id="DejaVuSans-Oblique-3" transform="scale(0.015625)"/>
      <path id="DejaVuSans-Oblique-b5" d="M 1625 -91 
Q 1009 -91 651 289 
Q 294 669 294 1325 
Q 294 1706 417 2101 
Q 541 2497 738 2766 
Q 1047 3184 1428 3384 
Q 1809 3584 2291 3584 
Q 2888 3584 3255 3212 
Q 3622 2841 3622 2241 
Q 3622 1825 3500 1412 
Q 3378 1000 3181 728 
Q 2875 309 2494 109 
Q 2113 -91 1625 -91 
z
M 891 1344 
Q 891 869 1089 633 
Q 1288 397 1691 397 
Q 2269 397 2648 901 
Q 3028 1406 3028 2181 
Q 3028 2634 2825 2865 
Q 2622 3097 2228 3097 
Q 1903 3097 1650 2945 
Q 1397 2794 1197 2484 
Q 1050 2253 970 1956 
Q 891 1659 891 1344 
z
M 3078 5119 
L 3700 5119 
L 2453 3944 
L 1972 3944 
L 3078 5119 
z
" transform="scale(0.015625)"/>
      <path id="DejaVuSans-Oblique-50" d="M 5747 2113 
L 5338 0 
L 4763 0 
L 5166 2094 
Q 5191 2228 5203 2325 
Q 5216 2422 5216 2491 
Q 5216 2772 5059 2928 
Q 4903 3084 4622 3084 
Q 4203 3084 3875 2770 
Q 3547 2456 3450 1953 
L 3066 0 
L 2491 0 
L 2900 2094 
Q 2925 2209 2937 2307 
Q 2950 2406 2950 2484 
Q 2950 2769 2794 2926 
Q 2638 3084 2363 3084 
Q 1938 3084 1609 2770 
Q 1281 2456 1184 1953 
L 800 0 
L 225 0 
L 909 3500 
L 1484 3500 
L 1375 2956 
Q 1609 3263 1923 3423 
Q 2238 3584 2597 3584 
Q 2978 3584 3223 3384 
Q 3469 3184 3519 2828 
Q 3781 3197 4126 3390 
Q 4472 3584 4856 3584 
Q 5306 3584 5551 3325 
Q 5797 3066 5797 2591 
Q 5797 2488 5784 2364 
Q 5772 2241 5747 2113 
z
" transform="scale(0.015625)"/>
      <path id="DejaVuSans-Oblique-51" d="M 3566 2113 
L 3156 0 
L 2578 0 
L 2988 2091 
Q 3016 2238 3031 2350 
Q 3047 2463 3047 2528 
Q 3047 2791 2881 2937 
Q 2716 3084 2419 3084 
Q 1956 3084 1622 2776 
Q 1288 2469 1184 1941 
L 800 0 
L 225 0 
L 903 3500 
L 1478 3500 
L 1363 2950 
Q 1603 3253 1940 3418 
Q 2278 3584 2650 3584 
Q 3113 3584 3367 3334 
Q 3622 3084 3622 2631 
Q 3622 2519 3608 2391 
Q 3594 2263 3566 2113 
z
" transform="scale(0.015625)"/>
      <path id="DejaVuSans-Oblique-4c" d="M 1172 4863 
L 1747 4863 
L 1606 4134 
L 1031 4134 
L 1172 4863 
z
M 909 3500 
L 1484 3500 
L 800 0 
L 225 0 
L 909 3500 
z
" transform="scale(0.015625)"/>
      <path id="DejaVuSans-Oblique-45" d="M 3169 2138 
Q 3169 2591 2961 2847 
Q 2753 3103 2388 3103 
Q 2122 3103 1889 2973 
Q 1656 2844 1484 2597 
Q 1303 2338 1198 1995 
Q 1094 1653 1094 1313 
Q 1094 881 1298 636 
Q 1503 391 1863 391 
Q 2134 391 2365 517 
Q 2597 644 2772 891 
Q 2950 1147 3059 1487 
Q 3169 1828 3169 2138 
z
M 1381 2969 
Q 1594 3256 1914 3420 
Q 2234 3584 2584 3584 
Q 3122 3584 3439 3221 
Q 3756 2859 3756 2241 
Q 3756 1734 3570 1259 
Q 3384 784 3041 416 
Q 2816 172 2522 40 
Q 2228 -91 1906 -91 
Q 1566 -91 1316 65 
Q 1066 222 909 531 
L 806 0 
L 231 0 
L 1178 4863 
L 1753 4863 
L 1381 2969 
z
" transform="scale(0.015625)"/>
      <path id="DejaVuSans-Oblique-58" d="M 428 1388 
L 838 3500 
L 1416 3500 
L 1006 1409 
Q 975 1256 961 1147 
Q 947 1038 947 966 
Q 947 700 1109 554 
Q 1272 409 1569 409 
Q 2031 409 2368 721 
Q 2706 1034 2809 1563 
L 3194 3500 
L 3769 3500 
L 3091 0 
L 2516 0 
L 2631 550 
Q 2388 244 2052 76 
Q 1716 -91 1338 -91 
Q 878 -91 622 161 
Q 366 413 366 863 
Q 366 956 381 1097 
Q 397 1238 428 1388 
z
" transform="scale(0.015625)"/>
      <path id="DejaVuSans-Oblique-56" d="M 3200 3397 
L 3091 2853 
Q 2863 2978 2609 3040 
Q 2356 3103 2088 3103 
Q 1634 3103 1373 2948 
Q 1113 2794 1113 2528 
Q 1113 2219 1719 2053 
Q 1766 2041 1788 2034 
L 1972 1978 
Q 2547 1819 2739 1644 
Q 2931 1469 2931 1166 
Q 2931 609 2489 259 
Q 2047 -91 1331 -91 
Q 1053 -91 747 -37 
Q 441 16 72 128 
L 184 722 
Q 500 559 806 475 
Q 1113 391 1394 391 
Q 1816 391 2080 572 
Q 2344 753 2344 1031 
Q 2344 1331 1650 1516 
L 1591 1531 
L 1394 1581 
Q 956 1697 753 1886 
Q 550 2075 550 2369 
Q 550 2928 970 3256 
Q 1391 3584 2113 3584 
Q 2397 3584 2667 3537 
Q 2938 3491 3200 3397 
z
" transform="scale(0.015625)"/>
      <path id="DejaVuSans-Oblique-b" d="M 2731 4856 
Q 1903 3822 1495 2892 
Q 1088 1963 1088 1100 
Q 1088 606 1206 120 
Q 1325 -366 1563 -844 
L 1063 -844 
Q 775 -306 634 201 
Q 494 709 494 1197 
Q 494 2125 923 3036 
Q 1353 3947 2222 4856 
L 2731 4856 
z
" transform="scale(0.015625)"/>
      <path id="DejaVuSans-Oblique-57" d="M 2706 3500 
L 2619 3053 
L 1472 3053 
L 1100 1153 
Q 1081 1047 1072 975 
Q 1063 903 1063 863 
Q 1063 663 1183 572 
Q 1303 481 1569 481 
L 2150 481 
L 2053 0 
L 1503 0 
Q 991 0 739 200 
Q 488 400 488 806 
Q 488 878 497 964 
Q 506 1050 525 1153 
L 897 3053 
L 409 3053 
L 500 3500 
L 978 3500 
L 1172 4494 
L 1747 4494 
L 1556 3500 
L 2706 3500 
z
" transform="scale(0.015625)"/>
      <path id="DejaVuSans-Oblique-55" d="M 2853 2969 
Q 2766 3016 2653 3041 
Q 2541 3066 2413 3066 
Q 1953 3066 1609 2717 
Q 1266 2369 1153 1784 
L 800 0 
L 225 0 
L 909 3500 
L 1484 3500 
L 1375 2956 
Q 1603 3259 1920 3421 
Q 2238 3584 2597 3584 
Q 2691 3584 2781 3573 
Q 2872 3563 2963 3538 
L 2853 2969 
z
" transform="scale(0.015625)"/>
      <path id="DejaVuSans-Oblique-44" d="M 3438 1997 
L 3047 0 
L 2472 0 
L 2578 531 
Q 2325 219 2001 64 
Q 1678 -91 1281 -91 
Q 834 -91 548 182 
Q 263 456 263 884 
Q 263 1497 752 1853 
Q 1241 2209 2100 2209 
L 2900 2209 
L 2931 2363 
Q 2938 2388 2941 2417 
Q 2944 2447 2944 2509 
Q 2944 2788 2717 2942 
Q 2491 3097 2081 3097 
Q 1800 3097 1504 3025 
Q 1209 2953 897 2809 
L 997 3341 
Q 1322 3463 1633 3523 
Q 1944 3584 2234 3584 
Q 2853 3584 3176 3315 
Q 3500 3047 3500 2534 
Q 3500 2431 3484 2292 
Q 3469 2153 3438 1997 
z
M 2816 1759 
L 2241 1759 
Q 1534 1759 1195 1570 
Q 856 1381 856 984 
Q 856 709 1029 553 
Q 1203 397 1509 397 
Q 1978 397 2328 733 
Q 2678 1069 2791 1631 
L 2816 1759 
z
" transform="scale(0.015625)"/>
      <path id="DejaVuSans-Oblique-59" d="M 459 3500 
L 1069 3500 
L 1581 525 
L 3256 3500 
L 3866 3500 
L 1875 0 
L 1100 0 
L 459 3500 
z
" transform="scale(0.015625)"/>
      <path id="DejaVuSans-Oblique-af" d="M 909 3500 
L 1484 3500 
L 800 0 
L 225 0 
L 909 3500 
z
M 1913 5119 
L 2535 5119 
L 1288 3944 
L 807 3944 
L 1913 5119 
z
" transform="scale(0.015625)"/>
      <path id="DejaVuSans-Oblique-5c" d="M 1588 -325 
Q 1188 -997 936 -1164 
Q 684 -1331 294 -1331 
L -159 -1331 
L -63 -850 
L 269 -850 
Q 509 -850 678 -719 
Q 847 -588 1056 -206 
L 1234 128 
L 459 3500 
L 1069 3500 
L 1650 819 
L 3256 3500 
L 3859 3500 
L 1588 -325 
z
" transform="scale(0.015625)"/>
      <path id="DejaVuSans-Oblique-48" d="M 3078 2063 
Q 3088 2113 3092 2166 
Q 3097 2219 3097 2272 
Q 3097 2653 2873 2875 
Q 2650 3097 2266 3097 
Q 1838 3097 1509 2826 
Q 1181 2556 1013 2059 
L 3078 2063 
z
M 3578 1613 
L 903 1613 
Q 884 1494 878 1425 
Q 872 1356 872 1306 
Q 872 872 1139 634 
Q 1406 397 1894 397 
Q 2269 397 2603 481 
Q 2938 566 3225 728 
L 3116 159 
Q 2806 34 2476 -28 
Q 2147 -91 1806 -91 
Q 1078 -91 686 257 
Q 294 606 294 1247 
Q 294 1794 489 2264 
Q 684 2734 1063 3103 
Q 1306 3334 1642 3459 
Q 1978 3584 2356 3584 
Q 2950 3584 3301 3228 
Q 3653 2872 3653 2272 
Q 3653 2128 3634 1964 
Q 3616 1800 3578 1613 
z
" transform="scale(0.015625)"/>
      <path id="DejaVuSans-Oblique-5b" d="M 3841 3500 
L 2234 1784 
L 3219 0 
L 2559 0 
L 1819 1388 
L 531 0 
L -166 0 
L 1556 1844 
L 641 3500 
L 1300 3500 
L 1972 2234 
L 3144 3500 
L 3841 3500 
z
" transform="scale(0.015625)"/>
      <path id="DejaVuSans-Oblique-46" d="M 3431 3366 
L 3316 2797 
Q 3109 2947 2876 3022 
Q 2644 3097 2394 3097 
Q 2119 3097 1870 3000 
Q 1622 2903 1453 2725 
Q 1184 2453 1037 2087 
Q 891 1722 891 1331 
Q 891 859 1127 628 
Q 1363 397 1844 397 
Q 2081 397 2348 469 
Q 2616 541 2906 684 
L 2797 116 
Q 2547 13 2283 -39 
Q 2019 -91 1741 -91 
Q 1044 -91 669 257 
Q 294 606 294 1253 
Q 294 1797 489 2255 
Q 684 2713 1069 3078 
Q 1331 3328 1684 3456 
Q 2038 3584 2456 3584 
Q 2700 3584 2940 3529 
Q 3181 3475 3431 3366 
z
" transform="scale(0.015625)"/>
      <path id="DejaVuSans-Oblique-47" d="M 2675 525 
Q 2444 222 2128 65 
Q 1813 -91 1428 -91 
Q 903 -91 598 267 
Q 294 625 294 1247 
Q 294 1766 478 2236 
Q 663 2706 1013 3078 
Q 1244 3325 1534 3454 
Q 1825 3584 2144 3584 
Q 2481 3584 2739 3421 
Q 2997 3259 3138 2956 
L 3513 4863 
L 4091 4863 
L 3144 0 
L 2566 0 
L 2675 525 
z
M 891 1350 
Q 891 897 1095 644 
Q 1300 391 1663 391 
Q 1931 391 2161 520 
Q 2391 650 2566 903 
Q 2750 1166 2856 1509 
Q 2963 1853 2963 2188 
Q 2963 2622 2758 2865 
Q 2553 3109 2194 3109 
Q 1922 3109 1687 2981 
Q 1453 2853 1288 2613 
Q 1106 2353 998 2009 
Q 891 1666 891 1350 
z
" transform="scale(0.015625)"/>
      <path id="DejaVuSans-Oblique-c" d="M -397 -844 
Q 434 191 840 1120 
Q 1247 2050 1247 2913 
Q 1247 3406 1130 3892 
Q 1013 4378 775 4856 
L 1275 4856 
Q 1563 4316 1703 3812 
Q 1844 3309 1844 2822 
Q 1844 1891 1411 973 
Q 978 56 116 -844 
L -397 -844 
z
" transform="scale(0.015625)"/>
      <path id="DejaVuSans-Oblique-79" d="M 884 2619 
L 1544 2619 
L 1388 1825 
L 728 1825 
L 884 2619 
z
" transform="scale(0.015625)"/>
      <path id="DejaVuSans-Oblique-5" d="M 1147 4666 
L 1147 2931 
L 616 2931 
L 616 4666 
L 1147 4666 
z
M 2328 4666 
L 2328 2931 
L 1797 2931 
L 1797 4666 
L 2328 4666 
z
" transform="scale(0.015625)"/>
      <path id="DejaVuSans-Oblique-2f" d="M 1075 4666 
L 1709 4666 
L 909 525 
L 3181 525 
L 3078 0 
L 172 0 
L 1075 4666 
z
" transform="scale(0.015625)"/>
      <path id="DejaVuSans-Oblique-20" d="M 678 2906 
L 4684 2906 
L 4684 2381 
L 678 2381 
L 678 2906 
z
M 678 1631 
L 4684 1631 
L 4684 1100 
L 678 1100 
L 678 1631 
z
" transform="scale(0.015625)"/>
      <path id="DejaVuSans-Oblique-f" d="M 575 794 
L 1234 794 
L 1131 256 
L 422 -744 
L 19 -744 
L 469 256 
L 575 794 
z
" transform="scale(0.015625)"/>
      <path id="DejaVuSans-Oblique-4b" d="M 3566 2113 
L 3156 0 
L 2578 0 
L 2988 2091 
Q 3016 2238 3031 2350 
Q 3047 2463 3047 2528 
Q 3047 2791 2881 2937 
Q 2716 3084 2419 3084 
Q 1956 3084 1617 2771 
Q 1278 2459 1178 1941 
L 800 0 
L 225 0 
L 1172 4863 
L 1747 4863 
L 1375 2950 
Q 1594 3244 1934 3414 
Q 2275 3584 2650 3584 
Q 3113 3584 3367 3334 
Q 3622 3084 3622 2631 
Q 3622 2519 3608 2391 
Q 3594 2263 3566 2113 
z
" transform="scale(0.015625)"/>
     </defs>
     <use xlink:href="#DejaVuSans-Oblique-36"/>
     <use xlink:href="#DejaVuSans-Oblique-52" transform="translate(63.484375 0)"/>
     <use xlink:href="#DejaVuSans-Oblique-4f" transform="translate(124.671875 0)"/>
     <use xlink:href="#DejaVuSans-Oblique-52" transform="translate(152.453125 0)"/>
     <use xlink:href="#DejaVuSans-Oblique-3" transform="translate(213.640625 0)"/>
     <use xlink:href="#DejaVuSans-Oblique-b5" transform="translate(245.421875 0)"/>
     <use xlink:href="#DejaVuSans-Oblique-50" transform="translate(306.609375 0)"/>
     <use xlink:href="#DejaVuSans-Oblique-51" transform="translate(404.015625 0)"/>
     <use xlink:href="#DejaVuSans-Oblique-4c" transform="translate(467.390625 0)"/>
     <use xlink:href="#DejaVuSans-Oblique-45" transform="translate(495.171875 0)"/>
     <use xlink:href="#DejaVuSans-Oblique-58" transform="translate(558.65625 0)"/>
     <use xlink:href="#DejaVuSans-Oblique-56" transform="translate(622.03125 0)"/>
     <use xlink:href="#DejaVuSans-Oblique-3" transform="translate(674.125 0)"/>
     <use xlink:href="#DejaVuSans-Oblique-b" transform="translate(705.90625 0)"/>
     <use xlink:href="#DejaVuSans-Oblique-57" transform="translate(744.921875 0)"/>
     <use xlink:href="#DejaVuSans-Oblique-55" transform="translate(784.125 0)"/>
     <use xlink:href="#DejaVuSans-Oblique-44" transform="translate(825.234375 0)"/>
     <use xlink:href="#DejaVuSans-Oblique-51" transform="translate(886.515625 0)"/>
     <use xlink:href="#DejaVuSans-Oblique-59" transform="translate(949.890625 0)"/>
     <use xlink:href="#DejaVuSans-Oblique-af" transform="translate(1009.078125 0)"/>
     <use xlink:href="#DejaVuSans-Oblique-44" transform="translate(1036.859375 0)"/>
     <use xlink:href="#DejaVuSans-Oblique-56" transform="translate(1098.140625 0)"/>
     <use xlink:href="#DejaVuSans-Oblique-3" transform="translate(1150.234375 0)"/>
     <use xlink:href="#DejaVuSans-Oblique-5c" transform="translate(1182.015625 0)"/>
     <use xlink:href="#DejaVuSans-Oblique-3" transform="translate(1241.203125 0)"/>
     <use xlink:href="#DejaVuSans-Oblique-57" transform="translate(1272.984375 0)"/>
     <use xlink:href="#DejaVuSans-Oblique-55" transform="translate(1312.1875 0)"/>
     <use xlink:href="#DejaVuSans-Oblique-52" transform="translate(1353.296875 0)"/>
     <use xlink:href="#DejaVuSans-Oblique-4f" transform="translate(1414.484375 0)"/>
     <use xlink:href="#DejaVuSans-Oblique-48" transform="translate(1442.265625 0)"/>
     <use xlink:href="#DejaVuSans-Oblique-45" transform="translate(1503.796875 0)"/>
     <use xlink:href="#DejaVuSans-Oblique-58" transform="translate(1567.28125 0)"/>
     <use xlink:href="#DejaVuSans-Oblique-56" transform="translate(1630.65625 0)"/>
     <use xlink:href="#DejaVuSans-Oblique-48" transform="translate(1682.75 0)"/>
     <use xlink:href="#DejaVuSans-Oblique-56" transform="translate(1744.28125 0)"/>
     <use xlink:href="#DejaVuSans-Oblique-3" transform="translate(1796.375 0)"/>
     <use xlink:href="#DejaVuSans-Oblique-48" transform="translate(1828.15625 0)"/>
     <use xlink:href="#DejaVuSans-Oblique-5b" transform="translate(1889.6875 0)"/>
     <use xlink:href="#DejaVuSans-Oblique-46" transform="translate(1948.875 0)"/>
     <use xlink:href="#DejaVuSans-Oblique-4f" transform="translate(2003.859375 0)"/>
     <use xlink:href="#DejaVuSans-Oblique-58" transform="translate(2031.640625 0)"/>
     <use xlink:href="#DejaVuSans-Oblique-4c" transform="translate(2095.015625 0)"/>
     <use xlink:href="#DejaVuSans-Oblique-47" transform="translate(2122.796875 0)"/>
     <use xlink:href="#DejaVuSans-Oblique-52" transform="translate(2186.28125 0)"/>
     <use xlink:href="#DejaVuSans-Oblique-56" transform="translate(2247.46875 0)"/>
     <use xlink:href="#DejaVuSans-Oblique-c" transform="translate(2299.5625 0)"/>
     <use xlink:href="#DejaVuSans-Oblique-3" transform="translate(2338.578125 0)"/>
     <use xlink:href="#DejaVuSans-Oblique-79" transform="translate(2370.359375 0)"/>
     <use xlink:href="#DejaVuSans-Oblique-3" transform="translate(2402.140625 0)"/>
     <use xlink:href="#DejaVuSans-Oblique-5" transform="translate(2433.921875 0)"/>
     <use xlink:href="#DejaVuSans-Oblique-2f" transform="translate(2479.921875 0)"/>
     <use xlink:href="#DejaVuSans-Oblique-af" transform="translate(2535.640625 0)"/>
     <use xlink:href="#DejaVuSans-Oblique-51" transform="translate(2563.421875 0)"/>
     <use xlink:href="#DejaVuSans-Oblique-48" transform="translate(2626.796875 0)"/>
     <use xlink:href="#DejaVuSans-Oblique-44" transform="translate(2688.328125 0)"/>
     <use xlink:href="#DejaVuSans-Oblique-56" transform="translate(2749.609375 0)"/>
     <use xlink:href="#DejaVuSans-Oblique-5" transform="translate(2801.703125 0)"/>
     <use xlink:href="#DejaVuSans-Oblique-3" transform="translate(2847.703125 0)"/>
     <use xlink:href="#DejaVuSans-Oblique-20" transform="translate(2879.484375 0)"/>
     <use xlink:href="#DejaVuSans-Oblique-3" transform="translate(2963.28125 0)"/>
     <use xlink:href="#DejaVuSans-Oblique-55" transform="translate(2995.0625 0)"/>
     <use xlink:href="#DejaVuSans-Oblique-58" transform="translate(3036.171875 0)"/>
     <use xlink:href="#DejaVuSans-Oblique-57" transform="translate(3099.546875 0)"/>
     <use xlink:href="#DejaVuSans-Oblique-44" transform="translate(3138.75 0)"/>
     <use xlink:href="#DejaVuSans-Oblique-56" transform="translate(3200.03125 0)"/>
     <use xlink:href="#DejaVuSans-Oblique-f" transform="translate(3252.125 0)"/>
     <use xlink:href="#DejaVuSans-Oblique-3" transform="translate(3283.90625 0)"/>
     <use xlink:href="#DejaVuSans-Oblique-51" transform="translate(3315.6875 0)"/>
     <use xlink:href="#DejaVuSans-Oblique-52" transform="translate(3379.0625 0)"/>
     <use xlink:href="#DejaVuSans-Oblique-3" transform="translate(3440.25 0)"/>
     <use xlink:href="#DejaVuSans-Oblique-46" transform="translate(3472.03125 0)"/>
     <use xlink:href="#DejaVuSans-Oblique-44" transform="translate(3527.015625 0)"/>
     <use xlink:href="#DejaVuSans-Oblique-51" transform="translate(3588.296875 0)"/>
     <use xlink:href="#DejaVuSans-Oblique-57" transform="translate(3651.671875 0)"/>
     <use xlink:href="#DejaVuSans-Oblique-4c" transform="translate(3690.875 0)"/>
     <use xlink:href="#DejaVuSans-Oblique-47" transform="translate(3718.65625 0)"/>
     <use xlink:href="#DejaVuSans-Oblique-44" transform="translate(3782.140625 0)"/>
     <use xlink:href="#DejaVuSans-Oblique-47" transform="translate(3843.421875 0)"/>
     <use xlink:href="#DejaVuSans-Oblique-3" transform="translate(3906.90625 0)"/>
     <use xlink:href="#DejaVuSans-Oblique-47" transform="translate(3938.6875 0)"/>
     <use xlink:href="#DejaVuSans-Oblique-48" transform="translate(4002.171875 0)"/>
     <use xlink:href="#DejaVuSans-Oblique-3" transform="translate(4063.703125 0)"/>
     <use xlink:href="#DejaVuSans-Oblique-59" transform="translate(4095.484375 0)"/>
     <use xlink:href="#DejaVuSans-Oblique-48" transform="translate(4154.671875 0)"/>
     <use xlink:href="#DejaVuSans-Oblique-4b" transform="translate(4216.203125 0)"/>
     <use xlink:href="#DejaVuSans-Oblique-af" transform="translate(4279.578125 0)"/>
     <use xlink:href="#DejaVuSans-Oblique-46" transform="translate(4307.359375 0)"/>
     <use xlink:href="#DejaVuSans-Oblique-58" transform="translate(4362.34375 0)"/>
     <use xlink:href="#DejaVuSans-Oblique-4f" transform="translate(4425.71875 0)"/>
     <use xlink:href="#DejaVuSans-Oblique-52" transform="translate(4453.5 0)"/>
     <use xlink:href="#DejaVuSans-Oblique-56" transform="translate(4514.6875 0)"/>
    </g>
   </g>
   <g id="legend_1">
    <g id="patch_7">
     <path d="M 84.868437 134.420047 
L 149.831562 134.420047 
Q 151.631562 134.420047 151.631562 132.620047 
L 151.631562 79.517235 
Q 151.631562 77.717235 149.831562 77.717235 
L 84.868437 77.717235 
Q 83.068438 77.717235 83.068438 79.517235 
L 83.068438 132.620047 
Q 83.068438 134.420047 84.868437 134.420047 
z
" style="fill: #e5e5e5; opacity: 0.8; stroke: #cccccc; stroke-width: 0.5; stroke-linejoin: miter"/>
    </g>
    <g id="patch_8">
     <path d="M 86.668437 88.155828 
L 104.668437 88.155828 
L 104.668437 81.855828 
L 86.668437 81.855828 
z
" style="fill: #3a3e7e; stroke: #3a3e7e; stroke-width: 0.5; stroke-linejoin: miter"/>
    </g>
    <g id="text_26">
     <!-- CUTCSA -->
     <g transform="translate(111.868437 88.155828) scale(0.09 -0.09)">
      <defs>
       <path id="DejaVuSans-26" d="M 4122 4306 
L 4122 3641 
Q 3803 3938 3442 4084 
Q 3081 4231 2675 4231 
Q 1875 4231 1450 3742 
Q 1025 3253 1025 2328 
Q 1025 1406 1450 917 
Q 1875 428 2675 428 
Q 3081 428 3442 575 
Q 3803 722 4122 1019 
L 4122 359 
Q 3791 134 3420 21 
Q 3050 -91 2638 -91 
Q 1578 -91 968 557 
Q 359 1206 359 2328 
Q 359 3453 968 4101 
Q 1578 4750 2638 4750 
Q 3056 4750 3426 4639 
Q 3797 4528 4122 4306 
z
" transform="scale(0.015625)"/>
       <path id="DejaVuSans-38" d="M 556 4666 
L 1191 4666 
L 1191 1831 
Q 1191 1081 1462 751 
Q 1734 422 2344 422 
Q 2950 422 3222 751 
Q 3494 1081 3494 1831 
L 3494 4666 
L 4128 4666 
L 4128 1753 
Q 4128 841 3676 375 
Q 3225 -91 2344 -91 
Q 1459 -91 1007 375 
Q 556 841 556 1753 
L 556 4666 
z
" transform="scale(0.015625)"/>
       <path id="DejaVuSans-37" d="M -19 4666 
L 3928 4666 
L 3928 4134 
L 2272 4134 
L 2272 0 
L 1638 0 
L 1638 4134 
L -19 4134 
L -19 4666 
z
" transform="scale(0.015625)"/>
       <path id="DejaVuSans-36" d="M 3425 4513 
L 3425 3897 
Q 3066 4069 2747 4153 
Q 2428 4238 2131 4238 
Q 1616 4238 1336 4038 
Q 1056 3838 1056 3469 
Q 1056 3159 1242 3001 
Q 1428 2844 1947 2747 
L 2328 2669 
Q 3034 2534 3370 2195 
Q 3706 1856 3706 1288 
Q 3706 609 3251 259 
Q 2797 -91 1919 -91 
Q 1588 -91 1214 -16 
Q 841 59 441 206 
L 441 856 
Q 825 641 1194 531 
Q 1563 422 1919 422 
Q 2459 422 2753 634 
Q 3047 847 3047 1241 
Q 3047 1584 2836 1778 
Q 2625 1972 2144 2069 
L 1759 2144 
Q 1053 2284 737 2584 
Q 422 2884 422 3419 
Q 422 4038 858 4394 
Q 1294 4750 2059 4750 
Q 2388 4750 2728 4690 
Q 3069 4631 3425 4513 
z
" transform="scale(0.015625)"/>
      </defs>
      <use xlink:href="#DejaVuSans-26"/>
      <use xlink:href="#DejaVuSans-38" transform="translate(69.828125 0)"/>
      <use xlink:href="#DejaVuSans-37" transform="translate(143.015625 0)"/>
      <use xlink:href="#DejaVuSans-26" transform="translate(198.234375 0)"/>
      <use xlink:href="#DejaVuSans-36" transform="translate(268.0625 0)"/>
      <use xlink:href="#DejaVuSans-24" transform="translate(333.40625 0)"/>
     </g>
    </g>
    <g id="patch_9">
     <path d="M 86.668437 101.656531 
L 104.668437 101.656531 
L 104.668437 95.356531 
L 86.668437 95.356531 
z
" style="fill: #fff200; stroke: #fff200; stroke-width: 0.5; stroke-linejoin: miter"/>
    </g>
    <g id="text_27">
     <!-- UCOT -->
     <g transform="translate(111.868437 101.656531) scale(0.09 -0.09)">
      <defs>
       <path id="DejaVuSans-32" d="M 2522 4238 
Q 1834 4238 1429 3725 
Q 1025 3213 1025 2328 
Q 1025 1447 1429 934 
Q 1834 422 2522 422 
Q 3209 422 3611 934 
Q 4013 1447 4013 2328 
Q 4013 3213 3611 3725 
Q 3209 4238 2522 4238 
z
M 2522 4750 
Q 3503 4750 4090 4092 
Q 4678 3434 4678 2328 
Q 4678 1225 4090 567 
Q 3503 -91 2522 -91 
Q 1538 -91 948 565 
Q 359 1222 359 2328 
Q 359 3434 948 4092 
Q 1538 4750 2522 4750 
z
" transform="scale(0.015625)"/>
      </defs>
      <use xlink:href="#DejaVuSans-38"/>
      <use xlink:href="#DejaVuSans-26" transform="translate(73.1875 0)"/>
      <use xlink:href="#DejaVuSans-32" transform="translate(143.015625 0)"/>
      <use xlink:href="#DejaVuSans-37" transform="translate(221.734375 0)"/>
     </g>
    </g>
    <g id="patch_10">
     <path d="M 86.668437 115.157235 
L 104.668437 115.157235 
L 104.668437 108.857235 
L 86.668437 108.857235 
z
" style="fill: #c80000; stroke: #c80000; stroke-width: 0.5; stroke-linejoin: miter"/>
    </g>
    <g id="text_28">
     <!-- COETC -->
     <g transform="translate(111.868437 115.157235) scale(0.09 -0.09)">
      <defs>
       <path id="DejaVuSans-28" d="M 628 4666 
L 3578 4666 
L 3578 4134 
L 1259 4134 
L 1259 2753 
L 3481 2753 
L 3481 2222 
L 1259 2222 
L 1259 531 
L 3634 531 
L 3634 0 
L 628 0 
L 628 4666 
z
" transform="scale(0.015625)"/>
      </defs>
      <use xlink:href="#DejaVuSans-26"/>
      <use xlink:href="#DejaVuSans-32" transform="translate(69.828125 0)"/>
      <use xlink:href="#DejaVuSans-28" transform="translate(148.546875 0)"/>
      <use xlink:href="#DejaVuSans-37" transform="translate(211.734375 0)"/>
      <use xlink:href="#DejaVuSans-26" transform="translate(266.953125 0)"/>
     </g>
    </g>
    <g id="patch_11">
     <path d="M 86.668437 128.657938 
L 104.668437 128.657938 
L 104.668437 122.357938 
L 86.668437 122.357938 
z
" style="fill: #298a08; stroke: #298a08; stroke-width: 0.5; stroke-linejoin: miter"/>
    </g>
    <g id="text_29">
     <!-- COME -->
     <g transform="translate(111.868437 128.657938) scale(0.09 -0.09)">
      <defs>
       <path id="DejaVuSans-30" d="M 628 4666 
L 1569 4666 
L 2759 1491 
L 3956 4666 
L 4897 4666 
L 4897 0 
L 4281 0 
L 4281 4097 
L 3078 897 
L 2444 897 
L 1241 4097 
L 1241 0 
L 628 0 
L 628 4666 
z
" transform="scale(0.015625)"/>
      </defs>
      <use xlink:href="#DejaVuSans-26"/>
      <use xlink:href="#DejaVuSans-32" transform="translate(69.828125 0)"/>
      <use xlink:href="#DejaVuSans-30" transform="translate(148.546875 0)"/>
      <use xlink:href="#DejaVuSans-28" transform="translate(234.828125 0)"/>
     </g>
    </g>
   </g>
  </g>
 </g>
 <defs>
  <clipPath id="pb1eff26b59">
   <rect x="78.568438" y="73.217235" width="858.517697" height="433.657033"/>
  </clipPath>
 </defs>
</svg>
